<svg xmlns="http://www.w3.org/2000/svg" fill="none" viewBox="0 0 100 94"><path fill="currentColor" fill-rule="evenodd" d="M50 0C22.387 0 0 21.044 0 47s22.387 47 50 47 50-21.044 50-47S77.613 0 50 0m32.707 77.745C73.973 85.957 62.36 90.48 50 90.48c-12.358 0-23.972-4.522-32.707-12.734C8.557 69.533 3.745 58.617 3.745 47s4.812-22.533 13.548-30.745C26.028 8.043 37.642 3.52 50 3.52s23.972 4.522 32.707 12.734C91.444 24.467 96.256 35.383 96.256 47s-4.812 22.533-13.547 30.745M27.85 32.926h1.868v1.588H27.85zm0 1.597h-.17v2.35h.17V39.4h1.868v-2.527H27.85zm0 7.228h1.868v2.527H27.85v2.35h1.868v4.744H27.85v-4.745h-.17v-2.35h.17zh-.17V39.4h.17zM6.999 54.644a38.7 38.7 0 0 0 2.284 7.458l4.32-13.701c-2.707 3.068-4.99 5.037-6.603 6.243m22.718 6.314.01 7.689-1.887.061.009-7.75zm.009-7.236H27.85v-2.35h-.17v2.35h.17V58.6h1.877zm-10.66 22.356a43 43 0 0 0 3.792 3.175c.16-1.756.312-3.654.453-5.649l-6.877-.23c.83.93 1.707 1.835 2.632 2.704m4.537-7.236a583 583 0 0 0 .623-15.617l-4.396 15.74 3.764-.115zm4.076-10.234h.17v2.35h-.17zm-9.2 10.393 5.878-21.06c.094-4.683.141-9.055.15-12.69L14.425 69.125l4.056-.133zm-8.394-5.125 5.698-18.064v.009c2.312-2.882 4.85-6.51 7.52-11.04L13.085 69.09a40.4 40.4 0 0 1-3-5.215m26.734 4.549L32.8 54.014c.18 4.815.368 9.79.585 14.516zm47.605 3.963-50.858-.94h-.01l-.018-.46 51.792.274c-.292.382-.594.754-.906 1.126M36.093 37.024a63 63 0 0 1-2.717-2.687l10.085 33.876 4.585-.142-8.953-28.36a93 93 0 0 1-3-2.687m2.058 31.356-5.547-19.89c-.18-5.126-.33-9.87-.444-13.684l9.962 33.45zm50.216-1.587-4.529.142-1.17-2.456a214 214 0 0 0 5.821 2.102l-.061.106-.037.063zm-7.434-48.871C72.669 10.153 61.688 5.879 49.999 5.879s-22.67 4.274-30.934 12.043S6.254 36.02 6.254 46.999c0 1.898.141 3.77.405 5.614 7.255-4.842 16.953-20.591 17.84-22.046a191 191 0 0 0-.066-3.334l1.094-.559-.019-1.055 2.35-.523v2.9h1.858v-2.758l2.189.487s.047 1.8.132 4.824q0 .008.01.015.01.008.018.021l.055.061v.002c.217.244.427.48.653.717a57 57 0 0 0 1.472 1.534 72 72 0 0 0 3.103 2.936 98 98 0 0 0 6.66 5.427c4.614 3.432 9.5 6.536 14.576 9.338l1.905 1.046 1.935 1.002q.478.255.971.497l.981.479q.488.24.977.483.487.244.976.483l1.972.923.99.46 1 .444 2 .887h.002v.001h.002c.669.284 1.337.567 2.015.85a186 186 0 0 0 15.642 5.711 39 39 0 0 0 3.82-16.858c0-10.987-4.547-21.31-12.81-29.078zm-.007 45.883 1.51 3.175-4.52.142-2.48-5.56c1.82.78 3.65 1.525 5.49 2.243M31.764 73.887h-2.038v-.07l-1.877-.063v8.717a38 38 0 0 0 1.886.985v-9.179l3.991 1.277c.189 3.68.387 7.041.585 9.853 4.943 1.782 10.245 2.713 15.698 2.713 11.689 0 22.67-4.274 30.934-12.043q.14-.132.278-.266h.001l.278-.266-46.048-1.534zM72.1 60.098l.007.003 1.007.45.135.056q.222.09.44.192l2.84 6.367-4.51.142-3.66-8.948.717.337 2.01.949q.51.225 1.014.452m-8.203-3.965-.765-.398-.981-.515c-.245-.125-.478-.256-.713-.388l-.193-.108 4.793 12.778 4.604-.142-4.029-9.843-1.519-.754v-.009q-.6-.307-1.193-.619H63.9zm-6.567-3.608 1.915 1.1.01.008.254.142 5.17 13.772-4.123.133-5.99-16.805a137 137 0 0 0 2.764 1.65m-14.584-9.826a260 260 0 0 1-1.812-1.445l8.453 26.772 4.151-.133L46 45.147a139 139 0 0 1-3.254-2.448m5.04 3.733-.002-.009h-.01zm7.102 21.416-7.101-21.416a131 131 0 0 0 5.006 3.335L59.2 67.715z" clip-rule="evenodd"/></svg>
