<svg xmlns="http://www.w3.org/2000/svg" fill="none" viewBox="0 0 217 65"><g fill="currentColor" clip-path="url(#vmware-clip)"><path d="M84.623 59.274v2.098h-.937v-13.94h.937v6.38c.841-1.277 2.083-2.404 4.01-2.404 2.349 0 4.737 1.888 4.737 5.057v.04c0 3.17-2.388 5.097-4.737 5.097-1.947 0-3.209-1.106-4.01-2.328m7.73-2.729v-.04c0-2.558-1.777-4.2-3.82-4.2s-3.97 1.697-3.97 4.18v.04c0 2.504 1.947 4.181 3.97 4.181s3.82-1.547 3.82-4.16m11.076-4.907h1.032l-4.221 10.079c-.861 2.043-1.853 2.769-3.245 2.769-.746 0-1.276-.135-1.927-.42l.325-.822c.516.25.936.36 1.662.36 1.012 0 1.683-.59 2.404-2.293l-4.677-9.678h1.087l4.045 8.707 3.515-8.707zm9.278-3.624h5.993c1.528 0 2.729.42 3.495 1.181.591.591.897 1.337.897 2.213v.04c0 1.603-.917 2.464-1.908 2.98 1.567.535 2.654 1.432 2.654 3.244v.04c0 2.389-1.968 3.665-4.947 3.665h-6.184zm8.036 3.78c0-1.052-.841-1.697-2.348-1.697h-3.38v3.55h3.21c1.507 0 2.518-.591 2.518-1.813zm-2.002 3.84h-3.726v3.666h3.896c1.587 0 2.578-.631 2.578-1.833v-.04c0-1.127-.896-1.793-2.748-1.793m7.466-4.341h2.328v2.273c.631-1.507 1.793-2.539 3.57-2.464v2.444h-.135c-2.023 0-3.435 1.317-3.435 3.99v3.836h-2.328zm7.002 5.1v-.04c0-2.884 2.293-5.267 5.383-5.267s5.367 2.348 5.367 5.232v.04c0 2.864-2.293 5.253-5.403 5.253s-5.347-2.349-5.347-5.213zm8.437 0v-.04c0-1.777-1.277-3.244-3.095-3.244-1.817 0-3.034 1.452-3.034 3.21v.04c0 1.757 1.277 3.224 3.075 3.224 1.797 0 3.054-1.452 3.054-3.19m3.979 2.079v-.04c0-2.178 1.718-3.244 4.181-3.244 1.127 0 1.928.17 2.714.42v-.25c0-1.432-.876-2.193-2.504-2.193-1.126 0-1.967.25-2.884.63l-.631-1.812c1.127-.495 2.213-.82 3.821-.82 1.507 0 2.633.4 3.339 1.126.746.726 1.087 1.792 1.087 3.109v5.978h-2.253v-1.261c-.686.82-1.738 1.472-3.285 1.472-1.893 0-3.59-1.087-3.59-3.115zm6.93-.726v-.686c-.591-.23-1.377-.4-2.293-.4-1.487 0-2.369.63-2.369 1.682v.04c0 .972.862 1.527 1.968 1.527 1.527 0 2.694-.876 2.694-2.158zm4.444-1.391v-.04c0-3.34 2.273-5.232 4.677-5.232 1.662 0 2.708.82 3.434 1.777V47.44h2.309v13.94h-2.309v-1.683c-.746 1.051-1.792 1.892-3.434 1.892-2.369 0-4.677-1.892-4.677-5.232m8.151 0v-.04c0-1.948-1.376-3.225-2.919-3.225-1.542 0-2.904 1.242-2.904 3.225v.04c0 1.948 1.337 3.225 2.904 3.225 1.568 0 2.919-1.297 2.919-3.225m4.622.037v-.04c0-2.864 2.213-5.267 5.252-5.267 1.893 0 3.074.706 4.031 1.737l-1.452 1.547c-.706-.726-1.452-1.261-2.599-1.261-1.682 0-2.919 1.452-2.919 3.21v.04c0 1.792 1.242 3.224 3.014 3.224 1.087 0 1.873-.496 2.614-1.242l1.392 1.377c-.992 1.107-2.158 1.893-4.126 1.893-2.999 0-5.212-2.349-5.212-5.213zm10.617 0v-.04c0-2.884 2.293-5.267 5.382-5.267 3.09 0 5.368 2.348 5.368 5.232v.04c0 2.864-2.293 5.253-5.403 5.253s-5.347-2.349-5.347-5.213zm8.437 0v-.04c0-1.777-1.277-3.244-3.095-3.244-1.817 0-3.034 1.452-3.034 3.21v.04c0 1.757 1.277 3.224 3.074 3.224 1.798 0 3.055-1.452 3.055-3.19m4.639-5.101h2.328v1.527c.651-.896 1.527-1.737 3.074-1.737 1.452 0 2.484.706 3.015 1.778.801-1.072 1.872-1.778 3.399-1.778 2.194 0 3.53 1.392 3.53 3.855v6.435h-2.308v-5.729c0-1.602-.746-2.463-2.043-2.463s-2.158.876-2.158 2.504v5.688h-2.308v-5.749c0-1.567-.766-2.443-2.043-2.443s-2.158.956-2.158 2.504v5.688h-2.328zM127.191 1.15c-1.267 0-1.928.84-2.228 1.807l-7.971 22.842-7.842-22.782c-.36-1.076-1.146-1.868-2.413-1.868h-.24c-1.202 0-1.928.792-2.288 1.868l-7.902 22.782-7.846-22.717c-.36-1.141-1.146-1.933-2.353-1.933-1.382 0-2.348 1.087-2.348 2.234 0 .42.18.9.3 1.271l9.474 26.367c.485 1.382 1.447 2.103 2.588 2.103h.125c1.207 0 2.113-.72 2.534-2.103l7.846-22.406 7.776 22.406c.425 1.382 1.332 2.103 2.538 2.103h.186c1.081 0 2.043-.72 2.533-2.103l9.534-26.427c.12-.365.3-.85.3-1.272 0-1.146-.966-2.173-2.293-2.173zm50.775-.002c-3.374 0-8.462 2.453-10.76 7.656V3.45c0-1.337-1.026-2.358-2.358-2.358s-2.293 1.081-2.293 2.358v27.28a2.32 2.32 0 0 0 2.353 2.353c1.327 0 2.298-1.082 2.298-2.353V20.135c0-9.013 4.957-13.545 11.001-14.27 1.211-.186 2.063-1.087 2.063-2.359s-.912-2.353-2.304-2.353zm16.639-.075c-8.472 0-14.691 7.18-14.691 16.088v.125c0 9.569 6.865 16.093 15.282 16.093 5.207 0 8.642-1.858 11.541-4.667.485-.415.716-.951.716-1.487 0-1.082-.896-1.978-2.013-1.978-.536 0-.951.24-1.302.531-2.253 2.098-5.032 3.59-8.822 3.59-5.453 0-10.13-3.765-10.775-10.465h22.141a2.14 2.14 0 0 0 2.133-2.153c0-8.201-5.158-15.672-14.21-15.672zm-10.064 14.41c.58-6.043 4.616-10.524 9.944-10.524 6.093 0 9.298 4.902 9.768 10.525h-19.717zm-40.88-14.325c-3.975 0-6.289.44-9.353 1.773-.851.375-1.272.971-1.272 1.932 0 1.082.967 1.988 2.053 1.988.23 0 .536-.065.841-.18 2.294-1.016 4.116-1.422 7.251-1.422 5.833 0 9.283 2.894 9.283 8.497v1.086c-2.779-.78-5.608-1.326-9.584-1.326-7.896 0-13.314 3.5-13.314 10.064v.125c0 6.384 5.849 9.699 11.637 9.699 5.477 0 9.093-2.534 11.266-5.368V31c0 1.207.896 2.173 2.218 2.173s2.233-.966 2.233-2.288v-17.2c0-3.975-1.087-6.984-3.2-9.097-2.288-2.293-5.658-3.43-10.059-3.43m8.858 20.118c0 4.937-4.702 8.432-10.425 8.432-4.216 0-7.836-2.293-7.836-6.203v-.12c0-3.916 3.26-6.45 9.098-6.45 3.79 0 6.869.671 9.163 1.332zM70.629.487c-6.074 0-9.88 4.206-9.88 4.206C58.728 2.07 55.944.487 51.222.487c-4.976 0-9.333 4.201-9.333 4.201-2.023-2.618-5.467-4.2-8.321-4.2-4.411 0-7.911 1.942-10.05 6.834l-6.313 14.886L9.102 3.106C8.081.873 5.557-.149 3.204.908.851 1.954-.021 4.563 1.046 6.806l9.889 21.49c1.552 3.37 3.19 5.138 6.269 5.138 3.284 0 4.716-1.928 6.268-5.138 0 0 8.628-18.781 8.713-18.971.09-.206.365-.811 1.241-.801.741.01 1.367.6 1.367 1.392v18.37c0 2.83 1.568 5.153 4.592 5.153s4.646-2.324 4.646-5.153v-15.03c0-2.9 2.078-4.777 4.907-4.777s4.712 1.942 4.712 4.776v15.031c0 2.83 1.577 5.153 4.591 5.153s4.657-2.324 4.657-5.153v-15.03c0-2.9 2.073-4.777 4.902-4.777s4.711 1.942 4.711 4.776v15.031c0 2.83 1.573 5.153 4.592 5.153 3.02 0 4.651-2.324 4.651-5.153V11.177c0-6.289-5.052-10.69-11.135-10.69zm142.418.586c-2.148 0-3.851 1.768-3.851 3.87v.026a3.83 3.83 0 0 0 3.851 3.855c2.178 0 3.855-1.772 3.855-3.88v-.02a3.843 3.843 0 0 0-3.855-3.85m3.114 3.87c0 1.723-1.357 3.165-3.114 3.165-1.758 0-3.12-1.412-3.12-3.14v-.024c0-1.718 1.352-3.155 3.12-3.155 1.767 0 3.114 1.417 3.114 3.15v.01z"/><path d="M213.271 3.007h-1.287a.41.41 0 0 0-.411.415v2.94c0 .23.18.41.411.41s.41-.18.41-.41V5.55h.656l.796 1.012c.101.11.221.21.401.21.2 0 .391-.155.391-.38 0-.126-.051-.21-.131-.31l-.57-.692c.445-.19.746-.546.746-1.136v-.01c0-.346-.116-.641-.331-.847-.23-.245-.601-.385-1.086-.385zm.575 1.287c0 .32-.22.525-.62.525h-.832V3.748h.822c.395 0 .63.185.63.53z"/></g><defs><clipPath id="vmware-clip"><path fill="currentColor" d="M.599.486h216.304v64H.599z"/></clipPath></defs></svg>
