<svg xmlns="http://www.w3.org/2000/svg" fill="none" viewBox="0 0 201 74"><path fill="currentColor" d="M104.804 10.834c.771 8.398 1.575 16.792 2.41 25.183.207 2.062.224 3.47.051 4.222-1.056 4.597-8.249 4.463-8.695-.702-.85-9.768-1.726-19.534-2.625-29.298-.02-.214-.136-.328-.35-.343-2.891-.185-19.514-1.224-21.66 1.18-.93 1.043-1.066 4.378-1.044 5.725.083 5.363.188 10.726.316 16.09.08 3.272 2.214 8.46-2.461 9.84-1.615.48-2.989.27-4.122-.629-2.066-1.639-1.993-4.923-2.151-7.55-.294-4.79-.42-9.585-.378-14.383.034-4.558.542-8.355 1.524-11.39 1.103-3.41 3.516-5.554 7.239-6.433C80.44.56 88.18.909 95.736 1.38 97 1 98-.472 102 .5c1.509.367 2.644 1.466 3.182 1.503 4.946.345 9.892.562 14.838.651 3.789.068 7.967-1.251 11.625-.814 3.687.444 4.834 4.469 2.615 7.192a.5.5 0 0 0-.096.482c3.054 10.392 4.076 23.292.384 33.666-1.137 3.2-3.249 4.179-6.335 2.936-1.423-.572-2.225-1.549-2.406-2.93-.079-.614.093-1.748.514-3.402 2.447-9.543 2.153-19.048-.881-28.512-.06-.18-.186-.266-.378-.259a143.85 143.85 0 0 1-19.875-.555c-.282-.027-.41.099-.383.376ZM39.656 64.536a126.666 126.666 0 0 0 2.436-4.179c.571-1.027 1.292-1.27 2.347-.988.235.063.288.2.16.41l-4.052 6.544a.475.475 0 0 0 0 .499l4.019 6.504c.124.207.071.34-.16.4-.995.25-1.76.055-2.342-.883a111.4 111.4 0 0 1-2.53-4.279.304.304 0 0 0-.256-.152.287.287 0 0 0-.255.147l-2.782 4.834a.634.634 0 0 1-.527.316l-1.42.05c-.303.007-.375-.119-.213-.378l4.04-6.537a.495.495 0 0 0 0-.505l-4.101-6.687a.235.235 0 0 1 .088-.328.23.23 0 0 1 .121-.027l1.567.078a.49.49 0 0 1 .401.238l2.958 4.923c.165.273.332.273.5 0Zm133.185 1.521c0 2.06-.768 4.036-2.133 5.493-1.366 1.457-3.219 2.275-5.15 2.275-1.931 0-3.784-.818-5.15-2.275-1.365-1.457-2.133-3.433-2.133-5.493 0-2.06.768-4.036 2.133-5.493 1.366-1.456 3.219-2.275 5.15-2.275 1.931 0 3.784.819 5.15 2.275 1.365 1.457 2.133 3.433 2.133 5.493Zm-7.258 6.049c1.399-.006 2.738-.648 3.723-1.786.985-1.138 1.536-2.678 1.53-4.282-.005-1.605-.565-3.14-1.558-4.271-.993-1.131-2.336-1.763-3.734-1.758-1.399.005-2.738.647-3.723 1.785-.985 1.138-1.536 2.679-1.53 4.283.005 1.604.566 3.14 1.558 4.27.993 1.132 2.336 1.764 3.734 1.759ZM21.462 70.955l-.909 2.54c-.064.182-.196.273-.395.273h-1.434c-.245 0-.326-.113-.243-.34l4.879-13.202c.105-.283.295-.528.546-.7a1.505 1.505 0 0 1 1.709 0c.25.172.44.417.546.7l4.879 13.258c.086.238.002.351-.255.34l-1.49-.067a.384.384 0 0 1-.209-.072.367.367 0 0 1-.13-.173l-.938-2.557a.534.534 0 0 0-.497-.345l-5.624.044a.47.47 0 0 0-.267.083.45.45 0 0 0-.168.218Zm.802-2.156a.164.164 0 0 0 .021.152.168.168 0 0 0 .137.071h4.665a.17.17 0 0 0 .137-.071.166.166 0 0 0 .02-.151l-2.331-6.485a.168.168 0 0 0-.159-.107.17.17 0 0 0-.158.107L22.264 68.8Zm29.168-9.893-1.535-.002a.17.17 0 0 0-.171.17l-.025 14.336c0 .094.076.17.17.171l1.535.003a.17.17 0 0 0 .17-.17l.026-14.337a.17.17 0 0 0-.17-.17Zm33.003 12.813c1.993-.822 1.861-2.69 1.873-4.893.012-2.407.008-4.828-.012-7.261-.004-.196.1-.294.311-.294l1.425-.011c.203-.004.307.09.31.283.029 2.899.027 5.795-.005 8.686-.078 7.589-11.585 7.223-11.597.333-.008-2.962-.018-5.933-.03-8.914a.37.37 0 0 1 .123-.274.436.436 0 0 1 .296-.114l1.346.005c.204 0 .304.095.3.283a841.06 841.06 0 0 0 .006 8.376c.024 3.129 2.166 5.237 5.654 3.794Zm38.805-10.632.016 4.336c0 .07.028.138.077.188.049.05.115.077.185.077l4.804.011a.257.257 0 0 1 .195.088c.025.027.044.06.055.095a.273.273 0 0 1 .011.11l-.122 1.072a.264.264 0 0 1-.261.237h-4.693a.259.259 0 0 0-.185.077.267.267 0 0 0-.077.188l.006 4.41a.26.26 0 0 0 .261.265l5.372-.017c.069 0 .135.027.184.077.049.05.077.117.077.188v1.065a.27.27 0 0 1-.077.188.258.258 0 0 1-.184.077l-7.246.006a.263.263 0 0 1-.261-.265V59.525a.263.263 0 0 1 .261-.265l7.24.017a.26.26 0 0 1 .261.26l.006 1.025a.26.26 0 0 1-.075.191.257.257 0 0 1-.186.08l-5.383-.011a.26.26 0 0 0-.261.265Zm12.876.003-.054 4.38a.252.252 0 0 0 .082.186.283.283 0 0 0 .199.078l4.883.005a.29.29 0 0 1 .199.078.252.252 0 0 1 .082.186l.006 1.016c0 .07-.029.137-.082.187a.291.291 0 0 1-.199.077l-4.883.017a.29.29 0 0 0-.199.077.255.255 0 0 0-.082.187l.054 5.99a.263.263 0 0 1-.087.197.294.294 0 0 1-.212.073l-1.543-.073a.292.292 0 0 1-.191-.08.257.257 0 0 1-.078-.184L134 59.524a.251.251 0 0 1 .082-.187.281.281 0 0 1 .198-.077l8.172.017a.29.29 0 0 1 .196.075.257.257 0 0 1 .085.183l.006 1.022a.26.26 0 0 1-.081.19.282.282 0 0 1-.2.08h-6.062a.288.288 0 0 0-.198.077.255.255 0 0 0-.082.186Zm12.557.012-.047 4.39a.257.257 0 0 0 .081.193.283.283 0 0 0 .203.077l4.899-.011c.073 0 .143.027.195.075a.261.261 0 0 1 .084.184l.035 1.042a.244.244 0 0 1-.019.103.27.27 0 0 1-.151.147.29.29 0 0 1-.108.02l-4.959.04a.285.285 0 0 0-.193.08.258.258 0 0 0-.079.185l.065 5.928a.254.254 0 0 1-.08.19.282.282 0 0 1-.199.08l-1.499-.006a.285.285 0 0 1-.196-.077.256.256 0 0 1-.082-.188v-14.03c0-.07.029-.137.082-.187a.285.285 0 0 1 .196-.077l8.123.022c.071 0 .139.026.191.072a.255.255 0 0 1 .087.176l.06 1.026a.258.258 0 0 1-.075.198.28.28 0 0 1-.204.083h-6.132a.289.289 0 0 0-.197.078.259.259 0 0 0-.081.187Zm35.482 7.066 3.216 5.293a.237.237 0 0 1-.081.326.232.232 0 0 1-.118.032l-1.567.006a.641.641 0 0 1-.559-.325l-3.022-5.26a.614.614 0 0 0-.216-.222.583.583 0 0 0-.293-.085l-1.55-.045c-.236-.007-.354.108-.354.347l.039 5.26a.327.327 0 0 1-.095.227.316.316 0 0 1-.227.092l-1.345-.028c-.192-.004-.287-.103-.287-.297V59.623c0-.186.094-.283.282-.29 3.659-.107 9.703-.706 9.316 4.683-.133 1.81-1.12 3.029-2.962 3.66-.262.089-.321.253-.177.492Zm-4.511-6.91-.033 4.722a.334.334 0 0 0 .097.245.335.335 0 0 0 .24.102l2.746.017a2.716 2.716 0 0 0 1.894-.747 2.56 2.56 0 0 0 .796-1.827v-.213a2.53 2.53 0 0 0-.196-.996 2.602 2.602 0 0 0-.573-.848 2.685 2.685 0 0 0-.865-.57 2.742 2.742 0 0 0-1.023-.205l-2.745-.016a.342.342 0 0 0-.338.336Zm17.482-.088.005 12.306c0 .09-.034.176-.096.24a.329.329 0 0 1-.233.103l-1.227.006a.332.332 0 0 1-.314-.21.355.355 0 0 1-.026-.134l.028-12.305a.352.352 0 0 0-.098-.244.33.33 0 0 0-.237-.1h-3.304a.322.322 0 0 1-.24-.105.347.347 0 0 1-.094-.25l.022-.88a.345.345 0 0 1 .1-.239.327.327 0 0 1 .234-.098l9.014.011c.088 0 .172.035.235.099a.348.348 0 0 1 .099.24l.006.878a.356.356 0 0 1-.096.247.331.331 0 0 1-.238.102l-3.206-.01a.327.327 0 0 0-.236.1.348.348 0 0 0-.098.243ZM2.298 63.54a.163.163 0 0 0-.077-.07.175.175 0 0 0-.198.038.153.153 0 0 0-.04.094l.083 9.785c0 .24-.127.354-.38.343l-1.312-.05c-.222-.012-.332-.122-.332-.332L0 59.558c-.004-.176.087-.266.273-.27l1.585-.006c.23 0 .392.1.487.298L7.6 70.708a.19.19 0 0 0 .073.084.219.219 0 0 0 .223 0 .21.21 0 0 0 .078-.084l5.236-11.083a.577.577 0 0 1 .216-.243.616.616 0 0 1 .318-.094l1.449-.028a.342.342 0 0 1 .239.086.308.308 0 0 1 .1.223l.005 13.824c0 .228-.118.335-.356.32l-1.377-.067c-.246-.011-.368-.133-.368-.365l.124-9.583a.151.151 0 0 0-.033-.105.174.174 0 0 0-.21-.044.16.16 0 0 0-.077.081l-4.494 9.606a1.006 1.006 0 0 1-.386.429 1.088 1.088 0 0 1-1.14 0 1.006 1.006 0 0 1-.386-.43L2.298 63.54Zm67.709.244a.192.192 0 0 0-.149-.187.188.188 0 0 0-.211.108l-4.134 9.525a.984.984 0 0 1-.898.595.982.982 0 0 1-.54-.162 1 1 0 0 1-.365-.433l-4.095-9.446a.216.216 0 0 0-.236-.123.202.202 0 0 0-.164.201l.045 9.475c0 .228-.113.34-.339.336l-1.36-.045c-.18-.007-.271-.103-.271-.286l.005-13.78a.29.29 0 0 1 .082-.202.273.273 0 0 1 .196-.083l1.565-.011a.361.361 0 0 1 .366.235l4.888 11.122a.24.24 0 0 0 .217.14.237.237 0 0 0 .216-.14l4.877-11.06a.471.471 0 0 1 .472-.303l1.376.017c.203.003.305.106.305.308v13.69c0 .262-.13.39-.388.387l-1.182-.017c-.222-.004-.331-.118-.328-.342l.05-9.519Zm25.223-.017.083 9.536c0 .258-.135.386-.403.382l-1.385-.023c-.205-.003-.308-.103-.308-.297l.006-13.773c0-.191.099-.29.296-.298l1.515-.034a.51.51 0 0 1 .515.304l5.215 11.126c.017.04.047.074.085.098a.239.239 0 0 0 .341-.098l5.178-11.053c.107-.233.294-.35.563-.354l1.503-.017c.213-.004.32.095.32.298v13.834c0 .21-.111.313-.332.31l-1.444-.034c-.217-.004-.325-.11-.325-.32l.035-9.537a.174.174 0 0 0-.046-.109.197.197 0 0 0-.229-.043.184.184 0 0 0-.086.085l-4.368 9.474c-.084.179-.22.33-.393.438a1.105 1.105 0 0 1-1.161 0 1.028 1.028 0 0 1-.393-.438l-4.403-9.536a.189.189 0 0 0-.09-.1.205.205 0 0 0-.137-.02.197.197 0 0 0-.116.072.179.179 0 0 0-.036.127Z"/></svg>
