<svg xmlns="http://www.w3.org/2000/svg" fill="none" viewBox="0 0 197 78"><path fill="#fff" d="M89.776 60.275c-.842-.444-1.566.192-1.979.937a22.058 22.058 0 0 1-6.325 7.493 28.53 28.53 0 0 1-16.203 5.198 27.617 27.617 0 0 1-19.325-7.846 27.287 27.287 0 0 1-8.231-19.068h.042V30.021a3.28 3.28 0 0 0-.97-2.327 3.32 3.32 0 0 0-4.68 0 3.28 3.28 0 0 0-.97 2.327v16.935H6.62V30.021a3.28 3.28 0 0 0-.97-2.327 3.32 3.32 0 0 0-4.68 0A3.28 3.28 0 0 0 0 30.021v43.054c0 .872.349 1.709.97 2.326a3.32 3.32 0 0 0 4.68 0 3.28 3.28 0 0 0 .97-2.326v-19.54h24.54l.119-.116c3.3 13.503 16.38 23.599 32.02 23.599a34.684 34.684 0 0 0 18.392-5.224 23.356 23.356 0 0 0 8.422-9.276c.48-.937.48-1.791-.379-2.235m31.868-33.937a3.379 3.379 0 0 0-2.344 1 3.34 3.34 0 0 0-.966 2.348v29.04a20.76 20.76 0 0 1-1.482 6.497 8.494 8.494 0 0 1-2.526 3.298 8.7 8.7 0 0 1-4.995 1.365 10.458 10.458 0 0 1-5.053-1.608 8.195 8.195 0 0 1-2.653-3.156 27.062 27.062 0 0 1-1.684-5.609l-2.745-11.72c-1.617-7.366-4.978-11.092-4.978-11.092-4.53-6.22-13.205-8.965-13.205-8.965a39.179 39.179 0 0 0-11.344-1.583c-8.902 0-16.936 3.475-21.897 10.004-.598.787-.648 1.675.194 2.21.842.536 1.524 0 2.19-.77a23.906 23.906 0 0 1 8.095-6.324 24.045 24.045 0 0 1 10.02-2.357c.842 0 1.684 0 2.594.126a28.063 28.063 0 0 1 11.79 3.7c4.169 2.587 8.75 6.63 10.83 16.876l2.847 14.466a17.886 17.886 0 0 0 1.685 4.479 14.835 14.835 0 0 0 7.992 6.982 16.84 16.84 0 0 0 5.365.987h.084c3.337.054 6.597-1 9.264-2.997a17.305 17.305 0 0 0 5.566-9.45 24.97 24.97 0 0 0 .733-5.308V29.669a3.34 3.34 0 0 0-.966-2.347 3.377 3.377 0 0 0-2.344-1.002m31.161 21.917a16.984 16.984 0 0 0-4.438-.703h-4.565a8.074 8.074 0 0 1-4.489-1.105 6.628 6.628 0 0 1-2.712-3.734 10.057 10.057 0 0 1-.379-1.766c0-.218 0-.394-.042-.503-.042-.108 0-.067 0-.083a7.17 7.17 0 0 1 1.028-4.069 6.156 6.156 0 0 1 3.47-2.403 9.6 9.6 0 0 1 1.684-.351h12.304c.878 0 1.72-.347 2.341-.964a3.28 3.28 0 0 0 0-4.652 3.322 3.322 0 0 0-2.341-.964h-11.79a15.411 15.411 0 0 0-6.502 1.624 12.124 12.124 0 0 0-4.699 4.186 13.71 13.71 0 0 0-2.097 7.668v.251c.089 2.263.663 4.48 1.684 6.505a12.584 12.584 0 0 0 4.371 4.847 14.696 14.696 0 0 0 8.068 2.16h4.565a11.2 11.2 0 0 1 4.312 1.071 6.25 6.25 0 0 1 2.408 2.093 7.494 7.494 0 0 1 1.095 4.252v.344a9.999 9.999 0 0 1-1.423 4.487 5.791 5.791 0 0 1-2.08 1.942 8.255 8.255 0 0 1-4.06.887h-17.012a3.32 3.32 0 0 0-2.34.964 3.278 3.278 0 0 0 0 4.653 3.32 3.32 0 0 0 2.34.963h17.012a14.486 14.486 0 0 0 8.06-2.168 13.393 13.393 0 0 0 5.381-7.45c.453-1.467.702-2.988.742-4.521v-.075a13.945 13.945 0 0 0-2.316-8.062 13.83 13.83 0 0 0-7.656-5.266m40.248 21.088h-14.199c-3.925 0-5.441-1.055-5.441-3.022V53.51h19.008a3.32 3.32 0 0 0 2.152-1.055 3.28 3.28 0 0 0 0-4.445 3.32 3.32 0 0 0-2.152-1.055h-19.008V35.839c0-1.834 1.002-2.512 2.737-2.512h16.844a3.138 3.138 0 0 0 2.065-.986 3.102 3.102 0 0 0 0-4.24 3.138 3.138 0 0 0-2.065-.985h-16.515c-.842-.042-4.506-.184-7.066 2.101a7.74 7.74 0 0 0-2.527 6.036v31.644a8.097 8.097 0 0 0 2.443 5.567c2.114 2.11 5.398 3.298 9.542 3.298h14.207a3.24 3.24 0 0 0 2.179-.996 3.2 3.2 0 0 0 0-4.429 3.242 3.242 0 0 0-2.179-.996"/><path fill="#E93B61" d="M21.99 8.623a7.01 7.01 0 0 0-4.786 2.116 6.926 6.926 0 0 0-1.962 4.828c0 1.8.703 3.531 1.962 4.827a7.01 7.01 0 0 0 4.785 2.117 7.042 7.042 0 0 0 3.64-.803 6.99 6.99 0 0 0 2.71-2.546l-3.368-1.557a2.852 2.852 0 0 1-1.08 1.164c-.464.279-.998.42-1.54.41a2.738 2.738 0 0 1-1.956-.711 2.706 2.706 0 0 1-.882-1.876v-.142h9.264a8.007 8.007 0 0 0 0-.837c.068-4.496-2.93-6.957-6.737-6.957m-2.527 5.441c0-.672.27-1.317.748-1.793a2.56 2.56 0 0 1 3.608 0 2.53 2.53 0 0 1 .748 1.793h-5.104ZM14.401 7.4a6.161 6.161 0 0 0-1.882-4.378 6.265 6.265 0 0 0-4.451-1.758H.051V22.05h4.438V4.855h2.653a2.803 2.803 0 0 1 2.004.743 2.771 2.771 0 0 1 .884 1.936 2.839 2.839 0 0 1-.92 1.97c-.558.51-1.296.78-2.053.75H6.03v4.948l4.438 6.806h5.239l-6.14-8.614a6.203 6.203 0 0 0 3.436-2.154 6.139 6.139 0 0 0 1.356-3.806m26.781 2.963a5.976 5.976 0 0 0-4.21-1.75c-3.445 0-6.241 3.04-6.241 6.79s2.796 6.789 6.24 6.789a5.925 5.925 0 0 0 4.211-1.8V22.1h4.17V.06h-4.17v10.338Zm-3.015 8.472a3.231 3.231 0 0 1-2.231-1.042 3.195 3.195 0 0 1-.834-2.307 3.038 3.038 0 0 1 .813-2.305 3.074 3.074 0 0 1 2.252-.976 3.09 3.09 0 0 1 2.253.976 3.052 3.052 0 0 1 .813 2.306 3.18 3.18 0 0 1-.834 2.306 3.215 3.215 0 0 1-2.232 1.042Zm52.325 3.215h4.21V.226h-4.21v21.858Zm-13.475-5.258a2.371 2.371 0 0 1-.747 1.59 2.4 2.4 0 0 1-3.28 0 2.372 2.372 0 0 1-.748-1.59V9.342h-4.135v8.28c0 2.804 2.914 5.073 6.518 5.073 3.605 0 6.519-2.277 6.519-5.073v-8.28h-4.118l-.009 7.484Zm6.4 5.258h4.212V.226h-4.211v21.858ZM62.954 10.74a5.489 5.489 0 0 0 1.844-4.043 5.4 5.4 0 0 0-1.507-3.735c-.969-1.088-2.754-1.573-5.18-1.573h-7.09v20.677h9.212a6.287 6.287 0 0 0 4.414-1.696 6.212 6.212 0 0 0 1.962-4.281c0-2.36-.842-4.052-3.655-5.35Zm-3.495 7.676h-3.992V4.964h2.787c.588 0 1.151.232 1.567.645a2.195 2.195 0 0 1 0 3.114 2.222 2.222 0 0 1-1.567.645h-1.448V13.1h2.653a2.7 2.7 0 0 1 1.9.782 2.662 2.662 0 0 1 0 3.777 2.7 2.7 0 0 1-1.9.782"/><path fill="#FFD500" d="m85.641 58.801.093-.25v-.126l-.093.376ZM69.64 47.35a1.929 1.929 0 0 0-.413.21h.042c.236 0 .236 0 1.204-.327h.076a3.644 3.644 0 0 0-.901.134m-10.274 7.886-1.525.837a26.256 26.256 0 0 1 1.5-.837m8.564-9.284a.27.27 0 0 1-.118 0h.127m4.37-.963h-.261l.261-.042m.514-.067h-.151a29.625 29.625 0 0 1 2.004-.301l-.505.176a1.551 1.551 0 0 0-.27.058.067.067 0 0 1-.067.05h-.093a3.403 3.403 0 0 1-.547 0h-.37m-13.998-7.868a26.14 26.14 0 0 0-8.422 4.972 9.695 9.695 0 0 1-2.728 1.9c-.135.302-.295.72-.43 1.022-.236.644-.362.98-.48 1.406a.243.243 0 0 0 0 .1c.194 0 .564-.192 1.929-1.012a53.8 53.8 0 0 1 5.895-3.232 2.865 2.865 0 0 1-1.213 1.624c-.21.134-.471.327-.69.452-.842.46-1.685.838-2.46 1.29-.951.535-1.86 1.146-2.804 1.674l-.295.15c-.379.176-.59.084-.58-.259v-.075l-.16.628a22.847 22.847 0 0 0-.49 4.026c-.053 1.83.183 3.659.7 5.416a.94.94 0 0 0 0 .11l.227.041c.087.498.214.988.38 1.465.412.293.252.837.496 1.155.14-.051.288-.08.438-.083l-.118.075c.226.08.456.144.69.193 0 .753 0 .753.076.929l.211-.142c1.162.25 1.162.25 1.76-.235l.489-.418c-.489.569-.489.569-.447.979.354.05.354.05 7.411-4.83 3.15-1.775 6.132-3.818 9.264-5.626-2.34.687-4.37 2.051-6.585 2.989l-1.963 1.138v-.042s-.092-.209-.151-.226h-.21a1.027 1.027 0 0 0-.498-.041.395.395 0 0 0-.118.058l-.176.084c-.068 0-.118.067-.186.084a.565.565 0 0 1-.244 0h-.126a1.108 1.108 0 0 1-.228 0c-.05-.05 0-.168.042-.21a.556.556 0 0 0 0-.142.067.067 0 0 1 .068-.05.244.244 0 0 0 .042-.092.923.923 0 0 1 .32-.319l.463-.31c.164-.128.345-.232.54-.309h.21c.084 0 .084-.059.126-.134.042-.075.042-.05 0-.092a1.208 1.208 0 0 0-.278-.126h-.118a1.27 1.27 0 0 0-.236.118 2.52 2.52 0 0 1-.27.159.771.771 0 0 0-.142.167l-.775.486h-.228c-.059 0-.345.108-.513.15a.964.964 0 0 0-.38.126 1.2 1.2 0 0 0-.109.117 1.283 1.283 0 0 1-.286.218.508.508 0 0 1-.303.05h-.076a.29.29 0 0 1-.135 0 .223.223 0 0 1 0-.092c0-.067.118-.092.143-.176.026-.084-.32 0-.412 0a3.044 3.044 0 0 0-.556.201c-.152.075-.312.092-.455.167-.143.076-.32 0-.539 0a.224.224 0 0 1 0-.159c0-.05.084-.083.118-.134a.169.169 0 0 0 0-.05l.219-.243c.152-.15.379-.267.539-.401.16-.134.379-.36.573-.544 0 0 .067-.06.1-.093a.06.06 0 0 0 .068 0s0-.083.059-.125a.143.143 0 0 0 .05 0 2.04 2.04 0 0 1 .27-.21.17.17 0 0 0 .11-.102.166.166 0 0 0-.017-.149c-.068 0-.093.092-.127.126a1.038 1.038 0 0 1-.286.176 2.36 2.36 0 0 1-.842.26h-.388a1.08 1.08 0 0 1-.227 0c-.05-.068.093-.252.126-.285l.177-.235a.425.425 0 0 0 .076-.125l.076-.05.564-.344a.286.286 0 0 1 .126-.067h.11l.151-.25c.211-.143.472-.235.708-.352.236-.118.573-.41.901-.561.1-.056.204-.104.312-.143a.848.848 0 0 0 .202-.075c.125-.11.26-.209.404-.293.169-.075.345-.134.514-.218.168-.083.084-.067.126-.092h.126l.228-.117.252-.109c.083-.026.162-.063.236-.109a.228.228 0 0 0 .202-.192c0-.042.05-.134 0-.176a.847.847 0 0 0-.404.126c-.126.058-.253.083-.379.142a.708.708 0 0 0-.185.109.204.204 0 0 1-.093 0h-.05a.379.379 0 0 0-.16 0 1.692 1.692 0 0 0-.244.067c-.164.06-.32.138-.464.234-.185.1-.353.218-.547.302a4.423 4.423 0 0 1-.716.31l-.556.175c-.118 0-.236.075-.345.117a.303.303 0 0 0-.11.084.574.574 0 0 1-.219.109l-.665.26a1.708 1.708 0 0 1-.202.066c-.1.01-.202.01-.303 0h-.177a.924.924 0 0 1-.354-.075h-.092a32.814 32.814 0 0 1 1.827-1.18 31.14 31.14 0 0 1 2.072-1.156c.707-.36 1.499-.77 2.265-1.13.767-.36 1.6-.728 2.409-1.063a87.75 87.75 0 0 1 2.526-.988 60.614 60.614 0 0 1 2.527-.887c.842-.276 1.684-.52 2.527-.762a49.655 49.655 0 0 1 2.433-.628 37.623 37.623 0 0 1 2.308-.469l1.061-.167c.09-.008.18-.022.27-.042a.98.98 0 0 0 .168-.05l-.067.042.505-.059h.455c.067 0 .42 0 .42.092s-.092.067-.142.084l-.194.084h1.019c.009 0 0 .041-.059.041l-.252.176a.847.847 0 0 1-.287.11l-.598.166a7.493 7.493 0 0 1-.892.151c-.076 0-.169 0-.144.1a.701.701 0 0 0 .186 0h.724c.123.014.247.014.37 0a.847.847 0 0 1 .261 0c.108.017.215.039.32.068-1.315.115-2.62.336-3.899.661a4.361 4.361 0 0 1-1.768.276 3.8 3.8 0 0 1 .303-.36c-.64-.092-4.464 1.214-4.716 1.892-.043.109 0 .134.11.168.248.05.503.07.757.058h1.566c.434.028.869.009 1.297-.058.354-.084.7-.218 1.045-.327.345-.109.673-.226 1.019-.318l.236-.075a.934.934 0 0 1 .168-.067c.076 0 .093 0 .067.108-.025.11-.463.21-.564.243-.1.034-.353.126-.522.193 0 .159.244.134.421.109h.337c.067 0 0 .184 0 .234a.936.936 0 0 1-.126.193.488.488 0 0 1-.203.167c0 .142.843.067.969.05.126-.016.337-.15.489-.167.151-.017.109 0 .176 0l.253-.042c.101 0 .185-.067.295-.075h.421c.076 0 .354-.1.53-.117h.261l.455-.076c.194-.05.396-.075.59-.1a4.23 4.23 0 0 1 .842 0c.253 0 .505.092.758.125.253.034-.059.235-.16.293a6.743 6.743 0 0 1-1.129.553 1.692 1.692 0 0 1-.758.167 1.133 1.133 0 0 0-.42.059c-.088.034-.178.06-.27.075h-.253a3.013 3.013 0 0 0-.37 0l-.152.042h-.118a.576.576 0 0 0-.252 0c-.093 0-.093.067-.194.075h-.084a.584.584 0 0 0-.261 0 1.695 1.695 0 0 1-.666.1h-.126a4.59 4.59 0 0 1-.43.151c-.311.118-.598.293-.926.386-.065.003-.13.003-.194 0l-.606.167c-.093 0-.194.059-.278.084a2.632 2.632 0 0 0-.421.192l-.22.1a1.01 1.01 0 0 1-.37.11l-.32.066c-.118 0-.151.093-.227.151-.076.059-.168 0-.244.075l-.463.252-.203.092c-.106.048-.205.11-.294.184a.475.475 0 0 0-.043.335.098.098 0 0 1 0 .042c.186.044.38.044.565 0 .072.01.146.01.219 0h.286a1.82 1.82 0 0 0 .53-.193l.076-.042c2.291-.51 4.456-1.574 6.839-1.733.042 0 3.992-.175 6.653 1.055.842.377 4.817 2.595 2.763 9.075l.193-.561c.339-1.071.584-2.169.733-3.282v-.084c.155-1.204.2-2.42.135-3.633a19.362 19.362 0 0 0-.935-5.023l-.068-.117c-.075-.209.64-1.95-3.25-5.86-1.685-1.565-4.051-1.674-5.896-2.82.27-.093.27-.093.674 0-1.575-.989-3.503-.763-5.18-1.399a.962.962 0 0 1 .843-.251v-.226a9.161 9.161 0 0 1 5.558.904c-.16-.117-.32-.234-.471-.36.403.174.783.4 1.128.67l.06.042-.153-.126c-2.526-1.934-6.223-4.403-17.508.134l-.842-.285s-.952.52-.96.511"/><path fill="#F39200" d="M76.41 39.279a3.924 3.924 0 0 0-.841-.318 2.159 2.159 0 0 0-.422-.067 4.05 4.05 0 0 0 1.129.343h.067M87.09 49.492a21.793 21.793 0 0 0-.917-4.663l-.312-.837a21.777 21.777 0 0 0-2.375-4.454c-.253-.36-.27-.385-.581-.778a17.799 17.799 0 0 0-3.049-3.047c.2.127.391.267.573.418l-.101-.134c-3.369-2.921-6.738-3.825-10.78-4.294a16.29 16.29 0 0 1 8.338 2.511 20.296 20.296 0 0 0-9.264-3.005c-.455 0-.969 0-1.567-.042a23.3 23.3 0 0 0-7.1 1.272 30.129 30.129 0 0 0-3.755 1.449l-.135.067h-.076l-.37.184h-.068l-.236.125-.522.31-.387.243-.287.2-.758.595c-.45.386-.88.794-1.288 1.222 1.398-1.28 5.322-3.524 11.639-4.227a3.83 3.83 0 0 1-1.6.62c-3.285.744-8.237 1.875-10.51 4.085-.237.242-.439.485-1.045 1.197a18.174 18.174 0 0 0-1.44 2.009l-.413.686c0 .059 0 .16-.05.235h.193l-.471 1.942.774-.628a8.116 8.116 0 0 0-.513 1.256c-.068.184-.16.418-.21.602l.15.201c.333-.26.678-.504 1.037-.728l-.447.31c.303-.134.725-.293 1.028-.41-.312.401-.632.77-.935 1.163a7.9 7.9 0 0 1 .952-.586l.134.134c.472-.058.75-.21 2.08-.98l.843-.46c-.843.528-.944.595-1.18.98.295 0 .295 0 1.98-.837a34.06 34.06 0 0 1 7.95-2.587c6.325-1.038 6.325-1.038 10.603-.913-1.541-.31-1.541-.31-7.015-.234-5.643.628-7.892 1.473-8.868 1.842-1.592.602-1.634.594-1.93.544 1.374-1.005 7.665-3.19 9.265-3.416-.05 0-5.053.712-7.84 2.152a23.647 23.647 0 0 1-3.487 1.364 29.024 29.024 0 0 0 2.172-1.967c-.64-.16-.64-.16-1.751.092 4.345-5.492 28.246-6.99 32.398 4.027a16.522 16.522 0 0 0-6.737-5.383c-1.02-.427-1.053-.46-1.255-.661l.177-.084c-.548-.31-3.318-1.172-4.422-.963 3.959.988 10.106 3.885 9.955 5.425-1.684-.561-2.889-1.884-4.531-2.512 1.861 1.013 4.977 2.713 5.466 4.362l-.186.117a5.765 5.765 0 0 1-.59-.435 17.923 17.923 0 0 0-4.008-2.713c-2.038-.837-4.278-1.046-6.384-1.674 2.291.93 4.792 1.24 6.957 2.453a16.918 16.918 0 0 1 4.53 4.035c3.428 4.613 2.072 9.317 1.567 11.084l-.42 1.121.454-1.171a19.397 19.397 0 0 0 1.027-7.778m-23.58-9.208c-.531.067-1.23.184-1.752.26a40.964 40.964 0 0 1 1.726-.26m7.36-8.23a27.042 27.042 0 0 0-2.82-.192h-.177a16.009 16.009 0 0 1 4.042.327 13.804 13.804 0 0 0-1.044-.126m-18.848 4.738-.11.1.076-.083m30.916 1.976v-.042Z"/><path fill="#003063" d="M85.759 58.475c.076-.201.143-.41.21-.62l-.193.561v.059m-30.058 3.214a2.47 2.47 0 0 0-.572-.285l.572.285Z"/><mask id="rbmh-mask" width="33" height="23" x="54" y="48" maskUnits="userSpaceOnUse" style="mask-type:luminance"><path fill="#fff" d="M80.647 51.492c0-.058.093-.142.126-.2a12.32 12.32 0 0 1-1.111 2.51l-.388.595c-.64.955-1.886 1.164-2.585 2.051-.169-.092-.21-.125-.489 0-.076-.427.623-1.013.068-1.28a16.394 16.394 0 0 1 2.4-3.207.35.35 0 0 0 .379.302 3.705 3.705 0 0 0 1.6-.838m-6.266 3.851c-3.26 2.646-.438 1.875-.404 1.859a3.65 3.65 0 0 0 .724-.394c-3.074 3.399-11.84 7.166-18.326 4.479-1.684-.712-2.888-1.139.388.837a.236.236 0 0 1-.101 0c1.39.695 3.116 1.674 2.248 1.674a.29.29 0 0 1 0 .059l2.4.904c-.143.059-.269.57 1.685.77 2.124.21 4.268.011 6.316-.586-4.05 2.788-8.759 4.571-13.416 3.667l.413.159c.916.34 1.878.544 2.855.603v.184a2.608 2.608 0 0 0 1.929.058c.429-.217.598-.26 3.368-.468-.614.502-1.49.267-2.139.703a.51.51 0 0 0 .169.26c3.528-.478 7.166-.972 16.178-8.263.12-.093.254-.17.396-.226-.657.628-.657.628-6.275 5.357-1.339 1.13-3.276 1.256-4.53 2.512 0 .05 0 .109.05.159h.059c.278.05.564.05.842 0-.556.226-1.23.51-2.063.879 0 .042-.042 0 0 .293 1.591-.36 4.741-.77 6.821-2.01 3.091-1.674 8.936-6.797 11.648-12.38.077-.11.174-.203.286-.277v.15c.101.202.101.202-.185 1.215.216-.468.393-.952.53-1.449.514-4.654-2.568-6.362-3.284-6.697a8.906 8.906 0 0 0-1.17-.435h-.102a14.534 14.534 0 0 0-2.004-.41 16.705 16.705 0 0 1-5.348 6.873"/></mask><g mask="url(#rbmh-mask)"><path fill="url(#rbmh-grad)" d="m86.554 45.596-35.019 3.046 2.214 25.152 35.019-3.046-2.214-25.152Z"/></g><path fill="#003063" d="M85.978 57.705v-.05c0-.16.076-.319.11-.47a20.924 20.924 0 0 1-5.896 8.581c.238-.154.46-.33.666-.527a3.54 3.54 0 0 0-.573.653 9.19 9.19 0 0 1 .657-.544c-.068.142-.068.142-1.466 1.515a20.186 20.186 0 0 0 6.123-8.087l.118-.343c.076-.243.143-.486.21-.72M56.67 62.142l-.952-.453c.295.195.615.347.952.453Z"/><path fill="#F39200" d="M85.658 58.767v-.134l.042-.117v-.125l-.042.376Z"/><path fill="#003063" d="M84.74 50.622a18.674 18.674 0 0 1-3.124 6.697c-.775 1.172-2.317 1.44-3.167 2.511-.202-.108-.27-.142-.598 0-.084-.527.766-1.238.093-1.565 1.136-2.511 3.73-4.027 4.53-6.697-.311.385-.53.837-.842 1.222.354-1.189.893-2.31 1.154-3.524l-.185-.076-.278.503a20.508 20.508 0 0 1-6.737 8.765c-3.992 3.248-.54 2.293-.497 2.277.313-.138.614-.3.9-.486-4.74 5.249-20.666 11.234-27.985 1.021.068.1.152.252.227.36 1.777 2.687 1.777 2.687 5.803 5.157-.75-.134-1.288-.712-1.996-.93 0 0 1.727 2.236 6.847 2.822 5.466.62 7.015.21 8.658-.243a19.001 19.001 0 0 1 2.67-.51c-4.035 1.23-4.035 1.23-8.54 1.515a9.076 9.076 0 0 1-2.527-.318 9.478 9.478 0 0 0-2.425-.335.394.394 0 0 1 0 .067h-.05.058l2.94 1.113c-.177.067-1.037.184-4.607-1.34 0 0 4.278 2.035 6.737 2.278 7.967.778 13.685-3.056 19.218-6.756v.092h.22c0 .126 0 .126-.64.837 1.305-1.046 1.979-2.678 3.368-3.658-.126.578-4.447 7.476-14.064 9.694a7.956 7.956 0 0 0 1.12-.218c-.665.185-.682.201-.96.293l1.07-.2c-.835.327-1.706.554-2.595.678 8.33-1.432 14.435-6.137 17.198-13.26.276-.825.507-1.663.69-2.512a6.475 6.475 0 0 0-1.566-5.3"/><path fill="#fff" d="M64.553 61.346a3.064 3.064 0 0 1-1.112-1.172c-.1-.167-.185-.335-.278-.502l-.1-.235a4.874 4.874 0 0 0-.405-.644l-.21-.193-.228-.234c-.067-.075-.135-.142-.185-.21a.758.758 0 0 1-.11-.175 23.817 23.817 0 0 1-1.566-6.363c-.185-1.272-.969-2.302-2.24-3.842-.16-.193-.337-.419-.523-.661l-.404-.511a12.591 12.591 0 0 0-1.027-1.164l-1.213-1.071-1.356-1.13a25.06 25.06 0 0 0-2.021-1.515 5.31 5.31 0 0 0-2.998-.955 4.13 4.13 0 0 0-2.122.528c-.731.518-1.516.956-2.342 1.306-.556.225-1.128.418-1.852.652l-.75.243a4.98 4.98 0 0 0-1.828 1.139l-.286.276-.295.276a1.38 1.38 0 0 1-.438.31 2.659 2.659 0 0 1-.623.092h-.792a3.952 3.952 0 0 0-2.198.988c-.252.21-.497.419-.724.628l-.11.1a5.485 5.485 0 0 1-.69.561 4.154 4.154 0 0 1-2.004.57 9.716 9.716 0 0 0-1.129.15 6.05 6.05 0 0 0-1.364.452 11.17 11.17 0 0 0-1.684.98l-.843.577-.699.502a5.255 5.255 0 0 1-2.922 1.223 1.62 1.62 0 0 1-1.165-.357 1.596 1.596 0 0 1-.578-1.067 2.5 2.5 0 0 1 1.103-2.176l.438-.352c.328-.26.631-.502.91-.736a6.828 6.828 0 0 0 1.018-1.03 2.821 2.821 0 0 0-.33-3.876 2.795 2.795 0 0 0-1.362-.653 10.62 10.62 0 0 0-1.238-.218h-.143l-.346-.058a1.539 1.539 0 0 1-.286-.075 23.986 23.986 0 0 1-2.375-1.465l-.118-.084-.084.117a3.526 3.526 0 0 0-.64 2c-.025.872.281 1.72.857 2.378a3.501 3.501 0 0 0 2.25 1.172.296.296 0 0 1 .238.216.29.29 0 0 1-.103.303c-2.19 1.716-2.661 2.453-2.77 4.379a4.296 4.296 0 0 0 1.162 3.214 4.905 4.905 0 0 0 3.688 1.415 8.523 8.523 0 0 0 1.247-.117h.042a.296.296 0 0 1 .295.268 7.555 7.555 0 0 0 .673 2.93.291.291 0 0 1-.05.376 1.475 1.475 0 0 1-.43.243 5.672 5.672 0 0 1-1.886.293c-.438 0-.767.301-1.036.954-.084.21-.16.436-.227.653v.059c0 .109-.068.21-.101.301a1.552 1.552 0 0 1-.093.226 1.885 1.885 0 0 1-.396.47.305.305 0 0 1-.194.075h-.05a.296.296 0 0 1-.21-.151 1.46 1.46 0 0 0-1.011-.728h-.06c-.49.044-.96.219-1.358.506a2.724 2.724 0 0 0-.907 1.126.294.294 0 0 1-.244.184h-.084a1.175 1.175 0 0 0-1.061.779 3.608 3.608 0 0 0-.169.627v.143c0 .159-.059.335-.1.494a1.51 1.51 0 0 1-.153.368l-.1.176-.068.117a1.025 1.025 0 0 0-.084.837.743.743 0 0 0 .412.444c.208.106.43.184.657.234a5.61 5.61 0 0 0 1.02.15.39.39 0 0 0 .193-.05l.135-.091a.33.33 0 0 1 .194-.067h.261l.623.125.598.117h.387a1.87 1.87 0 0 0 1.575-.745c.073-.1.14-.203.202-.31l.11-.175.076-.134a5.31 5.31 0 0 1 .235-.36.296.296 0 0 1 .236-.117h.076l.303.067c.22 0 .413.05.497.058h.177a3.219 3.219 0 0 0 2.105-.862l.177-.15.244-.21c.127-.108.259-.208.396-.301.203-.152.446-.24.7-.251h.05c.21 0 1.002.066 2.35.276h.176c.402-.025.794-.13 1.154-.31a9.846 9.846 0 0 0 1.095-.594c.095-.057.193-.107.295-.151l.345-.167c.325-.144.612-.359.842-.628.217-.316.406-.649.564-.996l.22-.444.378-.77a.303.303 0 0 1 .27-.16h.008a9.978 9.978 0 0 0 1.348-.125l.556-.084c.331-.058.666-.1 1.002-.125h1.002c.674 0 1.221.058 1.684.058h.708c.322-.018.641-.071.951-.159l.236-.083a.279.279 0 0 1 .118 0 .295.295 0 0 1 .202.083l.455.419a.293.293 0 0 1 .16.285.302.302 0 0 1-.253.2h-.176a1.128 1.128 0 0 0-.7.319.295.295 0 0 1-.353.092l-.127-.042a.99.99 0 0 0-.252 0h-.37a9.079 9.079 0 0 0-1.432.084 2.445 2.445 0 0 0-.784.242.63.63 0 0 0-.362.578c.241.95.703 1.83 1.348 2.57.252.155.546.228.842.21h.093a.297.297 0 0 1 .26.158 2.95 2.95 0 0 0 2.341 1.783h.06a18.11 18.11 0 0 0 4.581-1.548h.682a3.443 3.443 0 0 0 1.011-.235c.425-.323.758-.75.968-1.239a.293.293 0 0 1 .262-.159.296.296 0 0 1 .252.21 1.454 1.454 0 0 0 1.541 1.08h.11a5.567 5.567 0 0 0 1.398-.31l.244-.084a7.62 7.62 0 0 1 1.061-.301 2.48 2.48 0 0 1 .404 0h1.348c.347.014.693-.052 1.01-.193.356-.159.69-.361.994-.603l.076-.058a.295.295 0 0 1 .169-.059.33.33 0 0 1 .193.075 5.51 5.51 0 0 0 3.672 1.373h.186a1.227 1.227 0 0 0 .968-.41.642.642 0 0 0 .11-.56.301.301 0 0 1 0-.235.285.285 0 0 1 .193-.126c.266-.037.517-.147.724-.318a.771.771 0 0 0 .27-.527.398.398 0 0 0-.135-.31 3.858 3.858 0 0 0-.9-.578m-13.071-2.26c-.203.251-.506.327-.775.837-.548-.217-.649-.937-.75-1.247a73.079 73.079 0 0 1 2.021-.36 2.508 2.508 0 0 0-.496.837"/><path fill="#E93B61" d="M64.115 61.832c-1.027-.595-1.432-1.675-2.063-2.595-.22-.319-.615-.528-.843-.837-.808-2-1.333-4.102-1.558-6.246a6.672 6.672 0 0 0-.58-1.674 36.428 36.428 0 0 0-3.285-4.185c-.101-.101-.101-.11-.329-.319l-4.042-3.348a8.106 8.106 0 0 0-1.626-.837 4.124 4.124 0 0 0-2.846.109 18.621 18.621 0 0 1-2.577 1.431c-1.33.594-2.83.712-3.975 1.733-.666.578-1.23 1.473-2.215 1.322a4.27 4.27 0 0 0-2.93 1.039 5.593 5.593 0 0 1-2.443 1.674c-.842.36-1.895.184-2.762.51-1.382.344-2.477 1.424-3.647 2.26-1.18.679-2.308 1.407-3.773 1.374a2.535 2.535 0 0 1-1.34-.516c-.388-.297-.68-.7-.841-1.159a2.73 2.73 0 0 1 .842-2.854c.842-1.038 2.248-1.675 2.93-2.838a2.166 2.166 0 0 0-.168-2.235c-.91-.93-2.206-.963-3.369-1.256-.706-.3-1.376-.679-1.995-1.13a2 2 0 0 0-.304 1.29 3.08 3.08 0 0 0 .664 1.465c.348.422.802.745 1.315.937.624.125 1.259.193 1.895.2a.564.564 0 0 1 .363.428.66.66 0 0 1-.203.46 19.67 19.67 0 0 0-2.762 2.511 3.745 3.745 0 0 0-.505 3.684 3.954 3.954 0 0 0 1.286 1.605c.563.413 1.227.67 1.922.747a7.324 7.324 0 0 0 2.729-.293c.118 0 .169.117.219.184 0 .733.045 1.466.135 2.194.181.606.407 1.2.674 1.774a.758.758 0 0 1-.152.628c-.481.34-1.001.62-1.55.837l-1.33.084-.253.126a6.595 6.595 0 0 0-.842 1.816 4.795 4.795 0 0 1-1.769 1.415 4.187 4.187 0 0 1-.716.92 1.292 1.292 0 0 1-.783.285 3.86 3.86 0 0 0-.682 1.968c.75.067 1.533.477 2.274.067.741-.41.766-1.055 1.246-1.507.48-.452.944-.1 1.382 0 .665 0 1.145-.444 1.684-.67.387-.251.716-.695 1.12-.946a4.693 4.693 0 0 1 2.695 0c.636.14 1.301.06 1.886-.226a5.714 5.714 0 0 1 1.617-.837 2.575 2.575 0 0 0 1.003-1.356c.168-.452.614-.837.58-1.34-.134-.117-.294-.376-.496-.36-.261.36-.447.729-.733 1.072-1.23 1.674-2.206 1.833-4.708 1.833a5.851 5.851 0 0 0-2.648.386 5.819 5.819 0 0 0-2.194 1.523.237.237 0 0 1-.278-.05 1.241 1.241 0 0 1 .202-.695c1.145-1.607 2.914-1.984 4.792-2.026a7.296 7.296 0 0 0 2.863-.678 4.305 4.305 0 0 0 2.047-2.21c.219-1.072.303-2.218.581-3.24 0-.1.286-.176.37-.142.085.033.304.109.312.226-.185 1.055-.522 2.294-.118 3.307.842 1.071 2.342.493 3.453.443a19.975 19.975 0 0 1 3.2.05c.548 0 .952.118 1.373-.225a.966.966 0 0 0 .135-.645c0-.302-.295-.486 0-.745a.39.39 0 0 1 .413.058c.105.44.272.863.496 1.256a6.514 6.514 0 0 0 2.106 1.633 2.814 2.814 0 0 1 1.364 2.05c0 .444-.412.746-.75.946-.574.33-1.231.49-1.894.461-.91-.444-1.145-1.39-1.743-2.084a1.443 1.443 0 0 0-1.238-.369c-.484.02-.964.093-1.432.218a.46.46 0 0 0-.135.41c.303.56.649 1.097.994 1.674.396.235.935-.134 1.28.285a4.7 4.7 0 0 0 .977 1.298 1.604 1.604 0 0 0 1.642.3 20.747 20.747 0 0 0 3.706-1.43h.387a2.02 2.02 0 0 0 1.348-.377 13.3 13.3 0 0 0 .968-1.624 1.666 1.666 0 0 0 0-1.407 7.962 7.962 0 0 1-1.213-2.327 2.6 2.6 0 0 0-.842-.234c-.151.067-.379 0-.463.2l1.339 2.646c.116.236.162.5.135.762a3.413 3.413 0 0 1-.935 1.506c-.084.05-.185.1-.253 0a6.037 6.037 0 0 0 .388-1.866l-1.314-2.361c-.152-.318-.43-.611-.413-.98a.435.435 0 0 1 .287-.351c.58-.184 1.28-.16 1.684-.611a6.508 6.508 0 0 0 .842-2.846.412.412 0 0 1 .27-.201c.1 0 .219.117.27.167a4.39 4.39 0 0 1-.75 3.273c0 .117-.085.268.05.36a2.483 2.483 0 0 0 1.878-.293c.667-.023 1.33-.11 1.98-.26a.227.227 0 0 1 .134.168 3.24 3.24 0 0 0-.783 1.616c-.514.527-1.247.988-1.297 1.75.084.376.412 0 .631.05a.202.202 0 0 1 .169.2l-.514.746c-.27.443.05.954.05 1.372a.923.923 0 0 0 .893.511 7.395 7.395 0 0 0 2.131-.56 4.659 4.659 0 0 1 2.527-.168 3.458 3.458 0 0 0 2.046-1.147 1.243 1.243 0 0 1 .842.46 4.39 4.39 0 0 0 3.47 1.373l.118-.067a.2.2 0 0 0-.05-.301l-.843-.41c-.564-.36-1.263-.837-1.448-1.457a7.525 7.525 0 0 0-.842-1.674c-.118-.276-.396-.494-.514-.762 0 0 .067-.084.118-.067a3.667 3.667 0 0 1 1.827 1.95 2.924 2.924 0 0 0 2.822 1.457l.1-.084a.175.175 0 0 0 0-.2l-.572-.335Zm-13.4-11.938a.17.17 0 0 1-.218 0 10.75 10.75 0 0 0-.564-2.05l-.245-.269-.059-.083-.134-.193a.642.642 0 0 1-.068-.678.5.5 0 0 1 .497-.075c.26.208.47.47.615.77.18.45.269.93.261 1.414.002.396-.05.79-.151 1.173m6.62 11.209a2.998 2.998 0 0 1-1.062.125h-.068l-.168-.125a.167.167 0 0 1-.059-.193 1.673 1.673 0 0 1 1.137-1.063h.253a.253.253 0 0 1 .185.21c.005.086.005.172 0 .259a.833.833 0 0 1-.219.787Zm2.088-4.621-.05.142-.043.15a.334.334 0 0 1-.244.235.203.203 0 0 1-.186 0 .21.21 0 0 1-.084-.176v-.15l-.11-.603a1.41 1.41 0 0 0-.227-.586l-.227-.251-.261-.293a.844.844 0 0 0-.564-.302.952.952 0 0 0-.421.294l-.186.225-.16.21c-.059.1-.185.042-.185 0a.834.834 0 0 1-.059-.293 1.1 1.1 0 0 1 .101-.427l.135-.285.16-.335a.711.711 0 0 0 .143-.267v-.118l.093-.234a.444.444 0 0 1 .465-.313.449.449 0 0 1 .192.062c.209.122.38.298.496.51l.076.126.093.159.202.251c.5.47.8 1.11.842 1.792 0 .152-.018.303-.05.452"/><path fill="#DD0741" d="M18.814 63.757c.497-.35.892-.823 1.146-1.373-.05-.184-.245-.318-.396-.46-.152-.143-.253 0-.37 0a9.29 9.29 0 0 1-1.18.837c-.168.117-.1.377-.134.56-.034.185.202.285.303.394a.915.915 0 0 0 .631 0m-1.794.092a1.163 1.163 0 0 0-.631.694c-.084.545 0 1.055-.388 1.44 0 .1-.118.218 0 .319a6.03 6.03 0 0 0 1.196.318c.202-.662.354-1.39.598-1.968v-.15c-.202-.251-.413-.578-.75-.645m25.864-1.866c.345.377.328.946.716 1.239a1.745 1.745 0 0 0 1.364-.402c.22-.184-.1-.427-.135-.644-.218-.319-.067-.963-.614-.98-.542.074-1.088.107-1.634.1l-.152.101c-.1.318.38.318.463.611"/><path fill="#fff" d="M120.65.26a1.302 1.302 0 0 0-1.414.276l-8.254 8.204L102.56.37a1.296 1.296 0 0 0-1.414-.28 1.29 1.29 0 0 0-.801 1.193V21.02c0 .343.138.672.382.915a1.305 1.305 0 0 0 1.84 0 1.29 1.29 0 0 0 .381-.915V4.412l7.108 7.074a1.308 1.308 0 0 0 1.836 0l6.948-6.915v16.45c0 .343.137.672.381.915a1.305 1.305 0 0 0 1.84 0 1.29 1.29 0 0 0 .381-.915V1.457A1.286 1.286 0 0 0 120.6.26m19.496 19.254h-11.79c-.842 0-.842-.21-.96-.393a1.09 1.09 0 0 1-.118-.327.84.84 0 0 1 0-.1v-6.781h12.7a1.308 1.308 0 0 0 .92-.379 1.283 1.283 0 0 0 .282-1.41 1.284 1.284 0 0 0-.704-.7 1.308 1.308 0 0 0-.498-.098h-12.7V3.692c.018-.172.076-.338.168-.485.152-.176.253-.385 1.129-.41h11.571c.345 0 .676-.137.92-.38a1.29 1.29 0 0 0 0-1.829 1.305 1.305 0 0 0-.92-.378h-11.563a3.73 3.73 0 0 0-3.369 1.725 3.6 3.6 0 0 0-.522 1.749v15.01c.017.587.176 1.161.463 1.674a3.51 3.51 0 0 0 3.125 1.674h11.934c.345 0 .676-.136.92-.379a1.29 1.29 0 0 0 0-1.829 1.305 1.305 0 0 0-.92-.378M162.709 3.29A8.288 8.288 0 0 0 159.71.945a8.32 8.32 0 0 0-3.739-.76h-10.519a1.309 1.309 0 0 0-.914.38 1.29 1.29 0 0 0-.382.909v19.363c.002.341.139.668.382.909s.571.378.914.38h10.258a9.737 9.737 0 0 0 3.495-.779 8.521 8.521 0 0 0 3.11-2.194 8.453 8.453 0 0 0 1.834-3.322c.452-1.636.673-3.327.657-5.023 0-1.473-.164-2.941-.489-4.378a8.647 8.647 0 0 0-1.6-3.131m-.792 10.648c-.067.377-.134.67-.185.837l-.059.218v.05a5.85 5.85 0 0 1-1.275 2.355 5.894 5.894 0 0 1-2.195 1.546 7.655 7.655 0 0 1-1.777.503c-.235 0-.421.05-.539.058h-9.146V2.763h9.197a5.667 5.667 0 0 1 4.716 2.126c.364.458.664.962.893 1.499.084.2.143.368.177.477v.117c.282 1.247.423 2.522.421 3.8a17.487 17.487 0 0 1-.278 3.14M168.806.185a1.3 1.3 0 0 0-.917.377c-.243.242-.38.57-.38.912v19.363c0 .343.137.672.381.914a1.305 1.305 0 0 0 1.84 0 1.29 1.29 0 0 0 .381-.914V1.482c0-.344-.137-.674-.382-.917a1.31 1.31 0 0 0-.923-.38Zm26.461 20.15L184.959.778a1.298 1.298 0 0 0-2.299 0l-10.182 19.313a1.294 1.294 0 0 0 .597 1.66 1.31 1.31 0 0 0 1.711-.463l9.028-17.103 9.146 17.37a1.293 1.293 0 0 0 .763.636 1.31 1.31 0 0 0 1.388-.403 1.285 1.285 0 0 0 .156-1.43"/><defs><linearGradient id="rbmh-grad" x1="55.164" x2="85.927" y1="61.395" y2="58.687" gradientUnits="userSpaceOnUse"><stop stop-color="#0086CD"/><stop offset=".41" stop-color="#0084CB"/><stop offset=".56" stop-color="#007FC4"/><stop offset=".68" stop-color="#0075B8"/><stop offset=".77" stop-color="#0067A7"/><stop offset=".85" stop-color="#005591"/><stop offset=".92" stop-color="#003F76"/><stop offset=".96" stop-color="#003063"/><stop offset="1" stop-color="#003063"/></linearGradient></defs></svg>
