<svg xmlns="http://www.w3.org/2000/svg" fill="none" viewBox="0 0 226 54"><path fill="currentColor" d="M218.588 31.75a.48.48 0 0 0-.472-.479l-3.571-.058a.276.276 0 0 1-.272-.277l.027-5.633c.003-.17.087-.255.253-.255l10.3-.067a.237.237 0 0 1 .237.232c.032 7.588.077 15.156.133 22.705a13.04 13.04 0 0 1-.214 2.456.617.617 0 0 1-.231.371c-.701.513-1.583.995-2.645 1.446-8.933 3.784-16.651-.886-19.915-9.422-3.086-8.067-3.095-17.645-1.63-26.047 1.541-8.831 7.348-18.758 17.857-16.235 2.275.546 4.283 1.506 6.026 2.88 1.006.788.654 5.513.632 6.707-.009.454-.193.54-.552.26-2.294-1.794-5.144-3.96-7.9-4.358-2.889-.417-5.2.662-6.934 3.24-2.369 3.516-2.921 7.667-3.331 12.37-.451 5.144-.253 10.192.593 15.143.984 5.758 3.709 10.894 10.433 10.536.824-.04 1.189-.416 1.189-1.275.003-4.787-.001-9.534-.013-14.24ZM44.627 52.927l-5.585.018a.312.312 0 0 1-.307-.371L48.074.74a.313.313 0 0 1 .311-.255l6.252.054a.311.311 0 0 1 .303.255l9.276 51.726a.314.314 0 0 1-.307.367l-5.602-.045a.31.31 0 0 1-.303-.264L56.267 41.56a.313.313 0 0 0-.307-.264l-8.817.09a.31.31 0 0 0-.303.26l-1.906 11.023a.314.314 0 0 1-.307.26Zm3.25-18.078a.145.145 0 0 0 .083.153.14.14 0 0 0 .06.012l6.893-.013a.14.14 0 0 0 .11-.05.144.144 0 0 0 .033-.116l-3.487-21.12a.144.144 0 0 0-.14-.118.142.142 0 0 0-.14.117L47.877 34.85ZM11.121 6.99l-9.365.018a.36.36 0 0 1-.36-.362V1.188a.364.364 0 0 1 .36-.362l17.292-.08a.36.36 0 0 1 .355.287c.012.054.01.11-.003.164L8.133 46.23a.364.364 0 0 0 .352.452l10.66.005a.36.36 0 0 1 .362.362l.009 5.431a.363.363 0 0 1-.361.362H.474a.359.359 0 0 1-.351-.288.364.364 0 0 1 .004-.163L11.469 7.442a.364.364 0 0 0-.348-.451Zm90.087 21.738-7.9-.21a.275.275 0 0 0-.285.277l-.013 23.837a.277.277 0 0 1-.28.277l-5.856-.05a.276.276 0 0 1-.272-.277V1.112a.278.278 0 0 1 .276-.278L101.734.78a.276.276 0 0 1 .276.278l.031 5.655a.27.27 0 0 1-.081.2.269.269 0 0 1-.2.081L93.3 6.96a.275.275 0 0 0-.277.277l-.004 14.933a.278.278 0 0 0 .276.278l7.788.009a.28.28 0 0 1 .277.273l.133 5.717a.274.274 0 0 1-.285.282Zm37.745-21.375-.018 45.123a.393.393 0 0 1-.119.286.403.403 0 0 1-.286.117l-5.624-.054a.4.4 0 0 1-.397-.403l-.013-44.934a.404.404 0 0 0-.401-.403l-7.014.004a.4.4 0 0 1-.4-.402l.031-5.534a.404.404 0 0 1 .401-.403l21.054.098a.398.398 0 0 1 .285.12.41.41 0 0 1 .116.288l-.063 5.185a.403.403 0 0 1-.396.398l-6.76.112a.4.4 0 0 0-.396.402ZM174.996.758h-5.486a.402.402 0 0 0-.401.402v51.342c0 .222.18.402.401.402h5.486c.222 0 .401-.18.401-.402V1.16a.401.401 0 0 0-.401-.402Z"/></svg>
