<svg xmlns="http://www.w3.org/2000/svg" fill="none" viewBox="0 0 40 27"><path fill="#fff" fill-rule="evenodd" d="M14.297 15.688h-.69c-.809 0-1.29-.658-1.073-1.466.216-.807 1.05-1.464 1.857-1.464h.691l.297-1.11h-.69c-1.42 0-2.885 1.156-3.265 2.574-.38 1.42.465 2.575 1.885 2.575H14zm3.503 0h-.69c-.808 0-1.29-.658-1.074-1.466s1.05-1.464 1.858-1.464h.691l.297-1.11h-.69c-1.42 0-2.885 1.156-3.265 2.574-.38 1.42.465 2.575 1.885 2.575h.691zm3.749-2.105h-.712c-.228 0-.364-.185-.303-.413a.58.58 0 0 1 .524-.414h2.299l.297-1.109H21.34c-.835.01-1.691.688-1.915 1.523-.225.839.276 1.521 1.115 1.521h.712c.275 0 .438.224.364.499-.073.275-.356.498-.63.498H18.48l-.297 1.11h2.504c.885 0 1.8-.721 2.037-1.608.237-.886-.291-1.607-1.176-1.607m4.776-.826c.6 0 .973.12 1.106.356.12.21.11.584-.032 1.11-.14.526-.33.9-.562 1.11-.26.236-.697.355-1.297.355-.428 0-.971-.06-1.127-.345-.109-.201-.09-.578.055-1.12s.33-.92.545-1.12c.309-.286.885-.346 1.312-.346m.297-1.11c-2.111 0-2.882 1.154-3.263 2.575s-.228 2.575 1.883 2.575c2.04 0 2.884-1.153 3.265-2.575.38-1.421.155-2.574-1.885-2.574m5.329 1.109c.6 0 .973.12 1.106.356.12.21.108.584-.032 1.11-.142.526-.331.9-.562 1.11-.26.236-.697.355-1.297.355-.428 0-.97-.06-1.127-.345-.11-.201-.091-.578.054-1.12.146-.543.33-.92.546-1.12.31-.286.884-.346 1.313-.346m.298-1.11c-2.113 0-2.884 1.154-3.265 2.575-.38 1.422-.227 2.575 1.885 2.575 2.04 0 2.884-1.153 3.265-2.575.38-1.421.155-2.574-1.885-2.574M2.425 16.797l7.388-5.85-1.568 5.85h1.722l2.126-7.935c.094-.35-.033-.663-.32-.797-.286-.133-.676-.058-.988.188L.01 16.79l-.01.007zm35.242-.298c.078.134.197.24.294.268.164.053.357.032.458-.031.156-.097.204-.227.275-.419.101-.273 1.293-4.592 1.293-4.592l.013-.072h-.003l.003-.017h-1.003l-.025.072-.894 3.215-1.735-2.992c-.116-.2-.309-.34-.538-.302a.4.4 0 0 0-.1.03.73.73 0 0 0-.393.473l-1.296 4.637h.004l-.004.017h1.008l.008-.006.924-3.326z" clip-rule="evenodd"/></svg>