<svg xmlns="http://www.w3.org/2000/svg" fill="none" viewBox="0 0 39 17"><g fill="#fff" clip-path="url(#a)"><path d="M25.646 6.128v4.577h.834V7.959l2.883 2.842V6.223h-.82V8.97zm-11.245 0-1.995 2.008-1.981-2.008v4.577h.82V7.931l1.161 1.203 1.161-1.203v2.774h.82V6.128zm18.979.095h-3.457v.78h1.311v3.688h.834V7.002h1.312zm-8.376 0h-3.43v4.482h3.43v-.779h-2.61V8.792h1.817v-.779h-1.817v-.997h2.61zm-4.304 0h-.834v4.482h.834zm-3.033 0h-2.392v4.482h2.556c.778 0 1.38-.506 1.38-1.298a1.104 1.104 0 0 0-.793-1.093.95.95 0 0 0 .547-.888c-.014-.806-.615-1.203-1.299-1.203m-1.572 1.79v-.997h1.462c.37 0 .56.232.56.505 0 .274-.19.506-.56.506.014-.014-1.462-.014-1.462-.014m0 1.9v-1.12h1.626c.37 0 .642.245.642.56 0 .327-.273.56-.642.56zM8.13 6.222h-.505L5.67 10.705h.888l.342-.847h1.899l.341.847h.889zM7.187 9.12l.655-1.599.643 1.599z"/><path d="M37.835 5.363c.055.136.11.273.15.41 1.367 4.467-5.902 9.072-16.245 10.274a43 43 0 0 1-4.386.301c.697.027 1.393.041 2.104.027 10.753-.095 19.375-3.935 19.28-8.58-.028-.834-.342-1.654-.903-2.432M16.985.703A39 39 0 0 1 21.37.416C20.674.39 19.977.376 19.267.39 8.513.485-.108 4.324 0 8.969c.014.848.328 1.668.888 2.433-.054-.137-.11-.273-.15-.424C-.627 6.524 6.642 1.92 16.985.703"/></g><defs><clipPath id="a"><path fill="#fff" d="M0 .32h38.736v16H0z"/></clipPath></defs></svg>