<svg xmlns="http://www.w3.org/2000/svg" fill="none" viewBox="0 0 27 22"><path fill="#fff" d="M21.392 21.99c-2.638-.093-5.254-.915-7.624-2.074a.043.043 0 0 0-.039 0c-1.9.935-3.955 1.628-6.042 1.939-2.295.342-5.547.261-6.593-2.313-.506-1.242-.456-2.68-.172-4 .452-2.1 1.341-4.107 2.403-5.964A31.124 31.124 0 0 1 7.09 4.335c.7-.788 1.452-1.525 2.253-2.211C10.506 1.128 12.178-.003 13.755 0c1.13.003 2.27.579 3.182 1.2 1.852 1.266 3.365 2.925 4.748 4.672a28.878 28.878 0 0 1 3.654 5.983 19.54 19.54 0 0 1 1.092 3.049c.546 2.044.707 4.92-1.342 6.26-1.05.686-2.453.869-3.697.825ZM9.082 6.378c1.23-.152 2.58-.234 4.051-.245 1.51-.012 2.897.03 4.161.127 1.23.093 2.503.284 3.683.652h.007a.012.012 0 0 0 .008-.01c0-.003 0-.006-.002-.008-1.046-1.39-2.214-2.69-3.54-3.823a11.191 11.191 0 0 0-1.925-1.333c-.52-.283-1.152-.533-1.767-.54-.67-.006-1.445.325-2.026.67-.695.414-1.343.89-1.946 1.428-1.214 1.085-2.291 2.3-3.273 3.597-.012.015-.008.02.01.014a16.155 16.155 0 0 1 2.56-.53ZM21.538 8.42c-1.017-.495-2.202-.726-3.345-.866a29.047 29.047 0 0 0-1.997-.179 45.255 45.255 0 0 0-5.729.057c-.965.07-1.92.21-2.864.42a6.654 6.654 0 0 0-1.882.701c-.49.28-1.075.83-.99 1.426.107.766.612 1.555 1.104 2.186A19.11 19.11 0 0 0 7.96 14.47a27.468 27.468 0 0 0 5.772 4.096.037.037 0 0 0 .037 0 27.184 27.184 0 0 0 5.398-3.744 21.45 21.45 0 0 0 2.15-2.21c.57-.678 1.136-1.478 1.397-2.334.108-.353.088-.659-.116-.977-.245-.384-.667-.69-1.059-.88ZM5.078 20.774c1.596.11 3.169-.14 4.687-.584a21.002 21.002 0 0 0 2.642-.969c.02-.008.02-.018.002-.029a29.773 29.773 0 0 1-5.77-4.348c-1.104-1.064-2.17-2.297-2.804-3.706-.003-.006-.006-.006-.009 0-.467.884-.87 1.795-1.21 2.732-.534 1.476-.923 3.126-.592 4.653.122.567.377 1.107.818 1.482.577.492 1.486.717 2.237.769Zm17.014.02c.994-.032 2.307-.299 2.92-1.163.793-1.118.655-2.867.358-4.12-.363-1.528-.954-2.968-1.688-4.366a.01.01 0 0 0-.01-.005l-.005.001a8.384 8.384 0 0 1-.782 1.379c-.523.752-1.18 1.51-1.97 2.274a29.874 29.874 0 0 1-5.822 4.399c-.015.01-.015.017.002.025a19.35 19.35 0 0 0 4.164 1.34c.935.188 1.88.267 2.832.236Z"/><path fill="#fff" d="M13.756 13.492a1.258 1.258 0 1 0 0-2.515 1.258 1.258 0 0 0 0 2.515Z"/></svg>