<svg xmlns="http://www.w3.org/2000/svg" fill="none" viewBox="0 0 38 9"><g fill="#fff" clip-path="url(#a)"><path d="M6.208 7.495a3.199 3.199 0 1 1 1.696-5.913L6.208 4.295 9.4 2.452a4.3 4.3 0 0 0-1.446-1.39C7.19.604 6.124.321 4.948.321 3.268.32 1.796.93.974 1.845c-.608.675-.97 1.525-.97 2.45s.362 1.776.97 2.452c.824.915 2.275 1.521 3.926 1.521s3.102-.607 3.926-1.521q.068-.075.13-.154l-.124-.466a3.2 3.2 0 0 1-2.624 1.368m10.582.581-1.34-4.997a1.89 1.89 0 0 0-2.472-1.287l-2.883 1.049h2.965l.507 1.892a2.8 2.8 0 0 0-1.833-.68c-1.392 0-2.52.933-2.52 2.084 0 1.15 1.128 2.085 2.52 2.085 1.002 0 1.889-.49 2.436-1.245l.294 1.099zM12.704 7.3a1.163 1.163 0 1 1 0-2.325 1.163 1.163 0 0 1 0 2.325m9.548-5.621a1.15 1.15 0 0 0-.49.108l-1.852.863a1.164 1.164 0 0 0-1.64-.863l-2.26 1.054h1.59v5.235h2.326V3.423a.582.582 0 1 1 1.163 0v4.653h2.326V2.841c0-.642-.521-1.162-1.163-1.162m14.588 0c-.176 0-.343.039-.493.108l-1.85.863a1.163 1.163 0 0 0-1.64-.863l-2.26 1.054h1.59v5.235h2.326V3.423a.582.582 0 0 1 1.163 0v4.653h2.327V2.841c0-.642-.521-1.162-1.162-1.162m-5.868 3.295a3.295 3.295 0 1 1-6.59-.001 3.295 3.295 0 0 1 6.59 0m-3.157-2.295a.726.726 0 1 0-1.404.376l1.13 4.213a.73.73 0 0 0 .89.516.73.73 0 0 0 .513-.891z"/></g><defs><clipPath id="a"><path fill="#fff" d="M0 .32h38v7.95H0z"/></clipPath></defs></svg>