<svg xmlns="http://www.w3.org/2000/svg" fill="none" viewBox="0 0 19 19"><path fill="#fff" d="M8.368 6.679h.448c.28 0 .417 0 .544.044l.025.008c.164.06.294.195.351.366.048.156.048.302.048.59v1.24c0 .29 0 .435-.04.567l-.008.024a.6.6 0 0 1-.351.369c-.152.047-.29.047-.569.047h-.448c-.28 0-.417 0-.541-.042l-.028-.005a.6.6 0 0 1-.351-.37c-.047-.155-.047-.3-.047-.59v-1.24c0-.288 0-.434.04-.566l.007-.024a.59.59 0 0 1 .351-.366c.152-.052.29-.052.569-.052m4.28 0h.451c.277 0 .419 0 .543.044l.023.008c.164.06.294.195.351.366.05.156.05.302.05.59v1.24c0 .29 0 .435-.042.567l-.008.024a.6.6 0 0 1-.351.369c-.147.047-.29.047-.566.047h-.451c-.277 0-.416 0-.541-.042l-.025-.005a.6.6 0 0 1-.352-.37c-.047-.155-.047-.3-.047-.59v-1.24c0-.288 0-.434.04-.566l.007-.024a.59.59 0 0 1 .352-.366c.15-.052.29-.052.566-.052m4.262 0h.45c.276 0 .418 0 .543.044l.022.008c.165.06.294.195.351.366.05.156.05.302.05.59v1.24c0 .29 0 .435-.042.567l-.008.024a.6.6 0 0 1-.35.369c-.148.047-.29.047-.567.047h-.449c-.279 0-.418 0-.543-.042l-.025-.005a.6.6 0 0 1-.351-.37c-.048-.155-.048-.3-.048-.59v-1.24c0-.288 0-.434.043-.566l.005-.024a.6.6 0 0 1 .351-.366c.15-.052.29-.052.569-.052m.347-6.317c.277 0 .429.005.566.049l.027.008a.73.73 0 0 1 .422.44c.054.184.054.358.054.706v2.967H4.868V18.56l-2.837-.031c-.331 0-.498 0-.65-.052l-.028-.006a.72.72 0 0 1-.421-.439c-.055-.185-.055-.359-.055-.707V1.565c0-.348 0-.522.05-.676L.932.86Q.952.797.984.745a.7.7 0 0 1 .37-.327C1.532.362 1.7.362 2.03.362zm-8.89 11.53h9.96v6.665H7.4v-5.654c0-.294 0-.437.04-.567l.007-.026a.6.6 0 0 1 .351-.367c.152-.052.29-.052.569-.052"/></svg>