<svg xmlns="http://www.w3.org/2000/svg" fill="none" viewBox="0 0 23 21"><path fill="#fff" fill-rule="evenodd" d="M9.413 6.218 4.58 2.858l-.19-.13c-.38-.262-.816-.565-1.66-.565H1.295V.383h2.01c1.06 0 1.648.386 2.058.653l.102.067 5.641 3.941L17.019.966c.502-.35 1.21-.574 1.916-.574h3.16V2.31h-1.232c-.523 0-.813.026-1.276.348-2.407 1.668-5.936 4.11-5.936 4.11l4.833 3.362c.647.449 1.037.456 1.477.456h2.135v2.042H19.76c-1.052 0-1.658-.4-2.16-.744-1.89-1.308-5.645-3.94-5.645-3.94L6.136 11.98c-.642.441-1.151.647-1.994.647H.94v-1.962h1.19c.55 0 .95-.038 1.397-.343zm5.95 10.714v3.363c0 .15-.062.187-.183.187h-.69v-3.364c0-.111.04-.185.195-.185zm1.693 2.874v-2.874h-.67c-.153-.003-.202.06-.202.196v2.857c0 .237.068.498.521.498h1.47c.04 0 .058-.026.058-.062V20.1h-.908q-.27-.014-.269-.293m3.723-2.63c.04-.16.137-.243.31-.243l1.007-.001v3.333c0 .156-.069.218-.221.218h-.62v-2.887h-.051l-.636 2.631c-.044.18-.109.256-.284.256h-.464l-.71-2.888h-.052v2.803c0 .057-.022.085-.075.085h-.331V17.14c0-.125.047-.206.198-.206h.785l.574 2.691h.015zm-19.413-.244c-.427 0-.427.22-.427.49v3.06h.692c.145.002.211-.053.214-.19v-1.43h1.273c.03 0 .05-.018.05-.049v-.358H1.845v-.902q0-.236.227-.234h1.123c.033 0 .044-.021.044-.046v-.341zm9.411 1.93h-.872v1.621h.69c.122 0 .182-.037.182-.187V18.86m0-.794c-.002.056-.02.075-.05.1l-.822.672v-1.719c0-.11.044-.188.196-.188l.676-.001zM7.737 20.2c.379-.056.505-.29.505-.636v-2.44c0-.146.076-.193.174-.193h.698v2.307c0 .568-.114.854-.436 1.096-.168.126-.461.269-1.098.269-.364 0-.525-.021-.547-.027q-.044-.012-.043-.055v-.298h.016c.157.005.485.014.732-.023m-3.143-.563v-2.706h-.701c-.13 0-.17.064-.17.182v2.444c0 .495.228.796.717.95.41.128 1.067.126 1.5.002.326-.092.694-.342.694-.952v-2.626h-.678c-.152 0-.194.067-.194.18v2.527c0 .27-.056.406-.202.492a.85.85 0 0 1-.778-.004c-.156-.094-.188-.257-.188-.49M12.1 16.93c-.426 0-.427.22-.427.489v.915a.04.04 0 0 1-.015.035l-.597.49h.612v1.62h.695c.144.003.21-.052.213-.19v-1.43h1.273c.03 0 .049-.017.049-.048v-.358H12.58v-.902q.001-.237.227-.235l1.124.001c.032 0 .044-.021.044-.046v-.341z" clip-rule="evenodd"/></svg>