<svg xmlns="http://www.w3.org/2000/svg" fill="none" viewBox="0 0 22 23"><path fill="#ED1C24" d="M10.998 22.468c6.078 0 11-4.93 11-11S17.076.46 10.998.46s-11 4.93-11 11.008 4.922 11 11 11"/><path fill="#fff" d="M19.747 12.089s-.288.21-.49.21c-.155 0-.24-.133-.24-.272 0-.319.497-1.887.497-1.887l-1.22.016-.061.21s-.179-.358-.815-.358c-1.242 0-1.918 1.072-1.949 1.7v.155c-.03.032-.465.536-1.001.536-.427 0-.505-.357-.505-.59 0-.248.21-1.242.792-1.242.318 0 .512.28.512.28l.171-.567s-.272-.21-.83-.217c-1.196 0-2.019.9-2.05 1.707 0 .125-.008.163-.008.171-.038.047-.333.388-.722.388-.263 0-.263-.202-.263-.295 0-.124.52-1.886.52-1.886l-1.359.023-.481 1.716s-.745.535-1.778.613c-.536.039-.722-.287-.722-.481v-.078s.218.016.38.016c.125 0 1.708-.109 1.708-1.08 0-.55-.55-.76-1.257-.76-1.297 0-2.197.8-2.197 1.754 0 .87.745 1.242 1.7 1.242 1.087 0 2.143-.667 2.143-.667s.062.667.916.667 1.575-.667 1.575-.667.389.636 1.266.636 1.591-.73 1.591-.73.24.684 1.133.684c.7 0 1.072-.458 1.072-.458s.202.458.807.458c.738 0 1.297-.52 1.297-.52zm-11.11-1.592c.18.008.304.14.296.272-.031.862-1.095.73-1.095.73s.171-1.04.792-1.002zm8.532 1.894c-.334 0-.334-.364-.334-.473 0-.28.218-1.397.823-1.397.256 0 .389.217.389.372 0 .031-.156 1.49-.886 1.49z"/><path fill="#fff" d="M19.995 13.245s-2.849.994-8.283.924c-3.75-.046-6.606-1.149-6.606-1.149s.093-.178.155-.303c.373-.768.815-2.32.815-2.32s2.577-.723 2.577-2.764c0-.645-.605-1.064-1.195-1.087-2.073-.078-2.655 2.88-2.78 3.385 0 .038-.007.046-.007.046-.644-.085-1.001-.217-1.001-.217l-.148.396c.435.201 1.064.271 1.064.271-.124.792-.738 2.298-.738 2.298s-.566-.186-1.273-.186c-.916 0-1.226.435-1.25.706-.062.707.831 1.04 1.452 1.04 1.211 0 1.84-.652 1.84-.652s3.4 1.29 6.955 1.29c4.65 0 8.57-1.235 8.57-1.235l-.131-.427zM7.551 7.128c.396 0 .528.326.497.613-.194 1.708-1.894 2.104-1.894 2.104s.42-2.717 1.39-2.717zm-5.053 6.599c-.342.007-.567-.218-.567-.342 0-.28.35-.326.567-.31.527.03.985.21.985.21s-.535.426-.985.442"/><path fill="#fff" d="M11.68 8.541c-.434 0-.752.179-.752.582 0 .404.365.52.753.52s.737-.178.737-.597c0-.42-.419-.505-.737-.505"/></svg>