<svg xmlns="http://www.w3.org/2000/svg" fill="none" viewBox="0 0 38 27"><path fill="#FCFCFC" fill-rule="evenodd" d="M0 8.003v8.264c0 .29.167.43.378.43h6.346V15.53H1.76c-.136 0-.185-.104-.185-.296V8H0zm21.606 8.693 2.259-4.06-.005.804v3.26h1.354v-6.583h-1.342l-2.966 5.297-2.9-5.297h-1.342v6.582h1.351v-3.26l-.004-.803 2.256 4.06zm-6.905-.41c-.17.255-.274.41-.628.41H8.778c-.352 0-.455-.153-.623-.405l-.028-.041c-.186-.277-.465-1.05-.465-1.938v-4.198h1.351v3.907c0 .54 0 1.08.176 1.288.174.206.419.248.84.248h2.796c.418 0 .663-.042.839-.248.174-.207.174-.749.174-1.288v-3.907h1.354v4.198c0 .885-.28 1.659-.466 1.938zm13.679-6.172v6.583h-1.352v-6.583zm5.956 3.164 3.321 3.407h-1.708l-2.461-2.533-2.472 2.544H29.31l3.327-3.418-3.109-3.176h1.718l2.23 2.293 2.24-2.281h1.708z" clip-rule="evenodd"/></svg>