<svg xmlns="http://www.w3.org/2000/svg" fill="none" viewBox="0 0 30 20"><path fill="#fff" fill-rule="evenodd" d="M2.647 5.163h1.562l.619-3.78h4.44l.288-1.36H3.554zM24.31.032H30l-.89 5.122h-1.24l.614-3.74H24.08zm1.748 15.13h1.255l-.858 4.806H20.81l.172-1.288 4.489.014zM6.512 13.984h-1.63l2.335-8.768h2.217l-.153 6.236 2.226-6.236h2.263l-1.301 8.768h-1.58l1.16-7.046-2.348 6.105-1.63.004.076-6.164zM14.7 5.217h1.716l-.077 7.322 2.927-7.322h1.689l-3.807 8.768H14.93zm11.263 0h-4.344l-1.766 8.768h1.765l.723-3.654h2.091l.221-1.203h-2.041l.501-2.703h2.434zM2.376 15.161H.912l-.885 4.817h5.966l.221-1.316H1.79z" clip-rule="evenodd"/></svg>