<svg xmlns="http://www.w3.org/2000/svg" fill="none" viewBox="0 0 38 9"><g fill="#fff" clip-path="url(#a)"><path d="m12.44 6.996.993-1.518h2.015s-.158-.22-.26-.384a13 13 0 0 0-.282-.454l-.95-1.562-2.49 3.918H9.523l3.406-5.334c.11-.172.25-.322.422-.46.164-.136.38-.202.639-.202s.455.062.623.19.307.282.422.472L18.351 7h-5.906zM17.612 1l2.384 3.918L22.486 1h1.933l-3.392 5.338a2.1 2.1 0 0 1-.427.46Q20.35 7 19.968 7a1 1 0 0 1-.623-.19 1.7 1.7 0 0 1-.423-.472L15.601 1h2.015zm9.758 0h-1.938l-3.81 5.996h1.934zm-18 .19A1 1 0 0 0 8.746 1a.98.98 0 0 0-.633.203 2.1 2.1 0 0 0-.427.459L6.582 3.396l-1.08-1.734a1.8 1.8 0 0 0-.421-.472A1 1 0 0 0 4.457 1a.98.98 0 0 0-.633.203 2.1 2.1 0 0 0-.427.459L0 6.996h1.933l2.49-3.918L5.575 4.97 4.289 6.996h1.933l2.49-3.918 1.133 1.857 1.002-1.575-1.06-1.703a1.8 1.8 0 0 0-.422-.472zm22.639 3.119-3.1-1.796h4.165C33.074 2.518 34 1 34 1h-4.985c-.858 0-1.626.715-1.674 1.549-.038.67.36 1.072 1.022 1.442l2.567 1.487h-5.412l-.96 1.518h6.319c1.391 0 2.178-.402 2.178-1.443s-.264-.82-1.046-1.244"/></g><defs><clipPath id="a"><path fill="#fff" d="M0 1h34v6H0z"/></clipPath></defs></svg>