<svg xmlns="http://www.w3.org/2000/svg" fill="none" viewBox="0 0 38 9"><path fill="#fff" d="M14.076 4.31c-.151.55-.529.82-1.057.83-.54.011-.907-.237-1.08-.787a3.03 3.03 0 0 1 0-1.856c.162-.54.519-.788 1.037-.799.539-.01.927.249 1.09.788q.05.18.08.369c.063.398.065.806-.01 1.202q-.023.128-.06.253m1.975-.885c0-1.932-1.144-3.086-3.043-3.086-1.91 0-3.043 1.154-3.043 3.086.01 1.953 1.122 3.075 3.043 3.075 1.91-.01 3.043-1.144 3.043-3.075M1.791 1.947V6.36H0V.544C.108.534.194.512.28.512c1.166 0 2.331-.011 3.497 0 .982.01 1.37.323 1.402 1.295.054 1.5.011 3.01.011 4.553H3.4a5 5 0 0 1-.022-.4v-2.6c0-.237-.01-.475-.043-.701-.075-.475-.313-.68-.787-.712-.227-.01-.465 0-.756 0m30.646 2.686c.56 0 1.057-.01 1.553.011.098 0 .227.097.281.195.27.474 1.37.668 1.791.312a.446.446 0 0 0-.032-.712c-.14-.097-.302-.15-.464-.205-.648-.216-1.306-.41-1.932-.658s-1.014-.701-.992-1.413c.021-.745.388-1.285 1.068-1.554 1.036-.41 2.083-.367 3.108.032.56.216.884.658.96 1.316h-1.565a.25.25 0 0 1-.183-.107c-.324-.508-.81-.41-1.273-.324-.13.022-.313.205-.324.324-.01.15.075.377.205.453.216.14.475.205.723.28.529.173 1.057.313 1.575.497 1.1.41 1.414 1.726.615 2.6a2.1 2.1 0 0 1-.658.486c-1.122.453-2.255.453-3.366-.022-.626-.259-1.004-.755-1.09-1.51m-6.889-2.677h-1.543a.34.34 0 0 1-.227-.118c-.334-.367-.906-.518-1.337-.302-.12.064-.27.226-.26.345.011.151.12.367.249.442.215.13.485.195.733.27l1.533.486c1.37.431 1.284 2.136.485 2.73-.367.28-.842.474-1.305.582a4.3 4.3 0 0 1-2.212-.086c-.864-.259-1.37-.842-1.446-1.673.55 0 1.09-.01 1.63.011.064 0 .14.097.182.173.281.486 1.338.701 1.77.345.237-.194.237-.572-.032-.733-.195-.12-.432-.173-.648-.26-.626-.226-1.273-.41-1.877-.68-1.209-.528-.993-2.071-.227-2.6.27-.194.593-.356.917-.431a4.4 4.4 0 0 1 2.482.108c.626.215 1.014.647 1.133 1.391m1.631 6.3V6.87c.032-.022.053-.056.064-.056.766.056 1.112-.386 1.327-1.113.486-1.635 1.037-3.248 1.544-4.871.075-.25.183-.352.442-.341.507.023 1.014.011 1.586.011-.237.727-.453 1.397-.68 2.067-.442 1.34-.884 2.691-1.327 4.03-.097.284-.216.569-.323.841-.216.5-.583.783-1.101.818-.496.022-.993 0-1.532 0M8.632 6.37H6.83V4.44c0-.432.01-.864 0-1.296-.054-1.122-.302-1.143-1.122-1.23-.043-.237-.076-.475-.14-.712-.065-.216-.173-.431-.26-.625.756 0 1.511-.044 2.256.01.474.032.798.378.95.842.075.248.14.507.14.766.01 1.338.01 2.676.01 4.014a2 2 0 0 0-.032.162"/><path fill="#fff" d="M27.821 5.518c-.626-1.65-1.252-3.302-1.9-5.028.637 0 1.22-.01 1.803.01.075 0 .172.109.205.184.28.712.54 1.425.798 2.137.022.075.054.162.033.226-.281.831-.562 1.651-.842 2.482-.032 0-.065 0-.097-.01M17.023 4.41V2.9h2.299v1.51z"/></svg>