<svg xmlns="http://www.w3.org/2000/svg" fill="none" viewBox="0 0 30 8"><path fill="#fff" fill-rule="evenodd" d="M11.419.25 9.832 7.39h1.911l.637-2.715.804 2.715h1.951l-.81-2.866 1.959-2.38H14.1L12.522 4.05l.85-3.799zM2.783 3.806 4.157 7.39h1.87L7.644.25H5.715L4.9 3.884 3.55.248H1.594L0 7.39h1.968c.2-1.018.456-2.087.719-3.183zm7.282-1.66L8.897 7.39h-1.92l1.17-5.243zm-.727-.4c-1.053 0-1.09-.583-1.09-.748v.003c0-.47.418-.998 1.209-.998.859 0 1.089.486 1.089.768 0 .415-.336.975-1.208.975m15.02 1.186c.504-.694 1.52-1.1 2.338-.856.18.054.904.415.72 1.3l-.88 4.014h-1.913l.657-3.008c.077-.455-.154-.58-.321-.626-.387-.1-.825.134-.944.677l-.646 2.957H21.43l1.14-5.212h1.948q-.085.43-.16.754m-2.93 1.043c.014 1.092-.402 2.255-1.243 2.943v-.003c-.921.754-2.352.78-3.267.538-1.385-.364-1.627-1.743-1.41-2.807l.003-.017c.093-.459.549-2.704 3.463-2.704 1.55 0 2.44.998 2.453 2.05m-2.722-.566c-.17.003-.549.089-.688.47l.003-.003c-.08.219-.358 1.33-.407 1.771-.025.262.177.466.495.466.319 0 .592-.167.685-.457v-.012c.086-.264.31-1.094.413-1.751.037-.236-.077-.486-.5-.484m9.358 3.114A.968.968 0 1 0 30 6.519a.968.968 0 0 0-1.936.004m.1 0a.87.87 0 1 1 1.74 0 .87.87 0 0 1-1.74 0m.542-.54h.319c.219 0 .364.079.364.267 0 .133-.123.221-.276.239.098.01.122.055.158.125l.001.002.21.401h-.133l-.18-.35c-.07-.13-.122-.136-.24-.136h-.103v.486h-.123V5.985zm.125.454h.128c.143 0 .31-.045.31-.19 0-.168-.145-.176-.312-.176h-.126z" clip-rule="evenodd"/></svg>