<svg xmlns="http://www.w3.org/2000/svg" fill="none" viewBox="0 0 20 20"><g clip-path="url(#a)"><path fill="#fff" d="M2.358 11.487h.88q3.25 0 3.25-2.494c0-1.662-1.118-2.413-3.35-2.413h-.78zm0 2.179V20H0V4.41h2.674q1.963 0 2.966.272A4 4 0 0 1 7.42 5.71q1.347 1.314 1.347 3.312 0 2.14-1.437 3.393-1.437 1.251-3.875 1.25z"/><path fill="#919191" d="M10.329 10.083h1.173l1.057-6.075h1.451l.162-.924h-1.45l.103-.691q.092-.628.47-1.006.378-.377.987-.378.317.012.629.078l.142-.977a4 4 0 0 0-.837-.11q-1.056-.012-1.738.607-.648.595-.817 1.65l-.116.827h-1.074l-.162.924h1.083zm4.693-.001.869-4.993q.799-1.145 1.853-1.124.96.017 1.07.925.031.273-.006.59l-.77 4.602h1.172l.765-4.586q.122-1.196-.35-1.855-.475-.659-1.466-.685-1.206-.026-2.152 1.009l.168-.887-1.11.005-1.22 7z"/></g><defs><clipPath id="a"><path fill="#fff" d="M0 0h20v20H0z"/></clipPath></defs></svg>