<svg xmlns="http://www.w3.org/2000/svg" fill="none" viewBox="0 0 17 22"><path fill="#F57B20" d="M13.242 15.085c0-2.624-2.028-4.652-4.533-4.652-.477 0-.955.06-1.432.238h.358c2.386 0 4.295 1.969 4.295 4.474s-1.909 4.414-4.295 4.414h-.358a4.01 4.01 0 0 0 1.432.238c2.505-.06 4.533-2.087 4.533-4.712Z"/><path fill="#F57B20" d="M7.456 18.006h-.239c.299.12.597.179.895.179 1.61 0 2.863-1.372 2.863-3.102 0-1.73-1.312-3.102-2.863-3.102-.298 0-.596.06-.895.18h.239c1.491 0 2.744 1.312 2.744 2.922s-1.253 2.923-2.744 2.923Z"/><path fill="#F57B20" d="M16.045 15.206c0-.06 0-.06 0 0 0-4.056-2.803-6.383-6.68-6.383-.776 0-1.492.12-2.207.358h.477c3.639 0 6.382 2.088 6.382 5.905 0 3.818-2.743 5.905-6.382 5.905h-.477a6.845 6.845 0 0 0 2.207.358c3.877 0 6.68-2.147 6.68-6.143Z"/><path fill="#F57B20" d="M8.768 2.494a4.01 4.01 0 0 0-1.431-.238c-2.505 0-4.534 2.088-4.534 4.652 0 2.625 2.029 4.653 4.534 4.653.477 0 .954-.06 1.431-.239H8.41c-2.386 0-4.294-1.968-4.294-4.473S6.024 2.435 8.41 2.435c.18.06.239.06.358.06Z"/><path fill="#F57B20" d="M8.53 4.052h.238a2.393 2.393 0 0 0-.895-.179c-1.61 0-2.863 1.372-2.863 3.102 0 1.73 1.313 3.101 2.864 3.101.298 0 .596-.06.894-.178H8.53c-1.492 0-2.744-1.313-2.744-2.923.06-1.67 1.252-2.923 2.744-2.923Z"/><path fill="#F57B20" d="M8.828 12.818h-.477c-3.639 0-6.383-2.088-6.383-5.905 0-3.818 2.744-5.906 6.383-5.906h.477A6.845 6.845 0 0 0 6.621.65C2.803.65 0 3.035 0 7.032c0 4.056 2.803 6.144 6.621 6.144a4.66 4.66 0 0 0 2.207-.358Z"/></svg>