<svg xmlns="http://www.w3.org/2000/svg" fill="none" viewBox="0 0 25 18"><g fill="#fff" clip-path="url(#a)"><path d="m12.234.016 1.924 6.106v.002l-.002.003-1.923 1.926-.001.001h-.006l-1.924-1.927v-.005L12.224.016s0-.002.002-.002l.002-.001a.005.005 0 0 1 .005.003Z"/><path d="M.154 12.02H.153v-.004c1.555-2.34 3.11-4.677 4.665-7.014.002-.003.003-.003.004 0a8.092 8.092 0 0 0 2.964 3.59 8.026 8.026 0 0 0 4.748 1.346 8.005 8.005 0 0 0 4.136-1.319 8.125 8.125 0 0 0 3.006-3.616h.003l.001.001 4.664 7.015v.005a4.979 4.979 0 0 0-4.069-2.081 7.922 7.922 0 0 0-3.179.663 8.097 8.097 0 0 0-3.567 3.032 8 8 0 0 0-1.277 4.192c-.013-.23-.025-.466-.049-.688a8.054 8.054 0 0 0-8.05-7.199 4.983 4.983 0 0 0-4 2.077Z"/></g><defs><clipPath id="a"><path fill="#fff" d="M.045 0H24.71v18H.045z"/></clipPath></defs></svg>