<svg xmlns="http://www.w3.org/2000/svg" fill="none" viewBox="0 0 39 14"><g fill="#fff" clip-path="url(#a)"><path d="M8.003 1.28s-4.859 8.563-5.91 8.646c-.464.042-.24-.653.223-1.571 1.18-2.308 2.626-5.074 2.879-5.561.547-1.043-.337-1.432-.969-1.376C2.275 1.585.674 3.99.477 4.434c-.196.431-.238.668.534.849.491-1.446 1.84-2.753 2.246-2.795.393-.042.042.737-.393 1.53C2.626 4.49 1.292 7.13.407 8.854c-.87 1.71-.252 2.573 1.053 2.461 2.878-.25 8.115-10.177 8.115-10.177l-1.572.14m2.063 1.68c.59-.055 1.292-.583 1.558-1.194.267-.612 0-1.071-.603-1.016-.59.056-1.277.599-1.559 1.196-.252.626.014 1.07.604 1.015m8.733-.75c.59-.055 1.291-.583 1.558-1.195s0-1.07-.604-1.015c-.59.056-1.277.584-1.558 1.195-.267.626 0 1.071.604 1.016M37.246 5.7c-.253.237-.478.459-.562.39-.084-.07.183-.626.323-.89.421-.82 1.811-3.49 1.811-3.49l-1.544.14s-.239.458-.576 1.111c-.112-.556-.52-1.028-1.08-.987-.8.07-1.966.793-3.244 2.711-.73.737-1.39 1.418-1.558 1.571-.239.237-.477.459-.547.39-.085-.07.182-.626.323-.89.42-.82.575-1.113.814-1.585.73-1.46.14-1.835-.604-1.766-.45.042-1.867.57-3.818 3.267l1.586-3.058-1.53.139-1.011 1.96c-.913.945-1.924 1.974-2.134 2.169-.253.236-.478.458-.562.389-.084-.07.183-.626.323-.89.422-.82 1.811-3.49 1.811-3.49l-1.544.14s-.239.459-.575 1.112c-.113-.556-.52-1.029-1.082-.987-.814.07-1.965.792-3.242 2.71a67 67 0 0 1-1.545 1.558c-.253.237-.491.459-.561.39-.07-.07.182-.627.322-.89.422-.82 1.811-3.49 1.811-3.49l-1.544.14s-.323.61-.73 1.417c-.575.681-1.432 1.501-1.98 1.182 0 0 .548-.96.717-1.28.42-.82-.056-1.18-.337-1.153-.8.07-1.84 1.96-1.53 2.947-.548 1.043-1.081 1.821-1.643 1.877-.435.042-.463-.39-.28-.862a524 524 0 0 0 1.431-3.767l-1.53.139s-.379.945-.8 2.001a431 431 0 0 1-2.064 2.1c-.253.236-.492.458-.561.389-.085-.07.182-.626.322-.89.422-.82 1.811-3.49 1.811-3.49l-1.544.14s-2.26 4.379-2.653 5.144c-.562 1.042-.267 1.487.379 1.431.407-.041.926-.305 1.768-1.167q.968-1.01 1.91-2.044c-.127.32-.239.626-.337.862-.435 1.14-.112 2.071.997 1.974.814-.07 1.684-.806 3.285-3.295.547.195 1.137-.028 1.699-.43-.45.861-.843 1.626-.997 1.904-.548 1.043-.267 1.488.379 1.432.407-.042.926-.306 1.783-1.168.21-.209.59-.626 1.038-1.098-.336 1.25.141 2.016 1.096 1.932.673-.055 1.361-.584 1.937-1.21-.267.738.028 1.03.575.988.408-.042.941-.306 1.77-1.168q.777-.816 1.544-1.64l-1.376 2.641 1.53-.139c1.264-2.419 3.847-5.047 4.408-5.088.324-.028.197.403-.196 1.182-.45.847-.73 1.431-1.123 2.182-.548 1.043-.267 1.487.379 1.432.393-.042.926-.306 1.783-1.168.21-.208.59-.626 1.039-1.112-.337 1.265.14 2.016 1.095 1.946.674-.055 1.362-.584 1.937-1.209-.267.737.028 1.028.576.987.407-.042.968-.292 1.769-1.168.856-.932 1.768-1.46 1.768-.667 0 .709-1.333 2.405-4.043 2.641-1.376.098-21.942 2.155-21.942 2.155s3.678 1.696 4.8 2.378c3.005-2.433 16.72-3.726 17.058-3.754 3.468-.306 4.563-2.502 4.563-3.865.014-.946-.969-1.14-1.741-.445m-15.008.417c-.617 1.098-1.53 2.016-2.035 2.058-.491.041-.394-.807.224-1.905.632-1.098 1.544-2.016 2.05-2.057.491-.042.393.82-.239 1.904m13.365-1.154c-.617 1.099-1.53 2.016-2.035 2.058-.492.041-.393-.806.224-1.905.632-1.098 1.545-2.016 2.05-2.058.491-.041.393.807-.239 1.905"/><path d="M30.38 11.97c-.042-.126-.112-.376-.477-.376-.21 0-.534.14-.534.75 0 .39.155.724.534.724.253 0 .42-.139.478-.403h.448c-.084.459-.393.792-.94.792-.576 0-.983-.389-.983-1.126 0-.75.436-1.126.997-1.126.646 0 .912.445.926.75zm1.18 1.056h1.08v.39h-1.53v-2.14h.45zm2.12-1.807c.28 0 1.038.126 1.038 1.126 0 1.001-.758 1.126-1.038 1.126-.281 0-1.04-.125-1.04-1.126s.759-1.126 1.04-1.126m0 1.877c.238 0 .59-.153.59-.75 0-.599-.338-.751-.59-.751-.24 0-.59.152-.59.75s.337.751.59.751m3.074-.431c0 .556-.337.806-.884.806-.197 0-.492-.041-.688-.264-.112-.125-.169-.306-.169-.514v-1.418h.463v1.39c0 .292.169.431.38.431.309 0 .435-.153.435-.403v-1.418h.463zm.379-1.39h.954c.73 0 .885.612.885 1.015 0 .459-.183 1.126-.899 1.126h-.94zm.435 1.765h.435c.366 0 .491-.361.491-.723 0-.625-.308-.68-.491-.68h-.435z"/></g><defs><clipPath id="a"><path fill="#fff" d="M0 0h39v14H0z"/></clipPath></defs></svg>