<svg xmlns="http://www.w3.org/2000/svg" fill="none" viewBox="0 0 38 8"><g fill="#fff" clip-path="url(#a)"><path d="M9.883.328a3.65 3.65 0 0 1 3.648 3.582c.015 2.098-1.63 3.714-3.655 3.714-2.018 0-3.663-1.652-3.655-3.64A3.653 3.653 0 0 1 9.883.327m1.448 3.655c0-.811-.658-1.476-1.462-1.476s-1.462.657-1.47 1.462A1.46 1.46 0 0 0 9.854 5.43a1.44 1.44 0 0 0 1.477-1.448m12.056.001C23.4 1.943 25.024.321 27.042.328c2.025.007 3.663 1.645 3.648 3.64-.015 2.04-1.638 3.663-3.655 3.656-2.01 0-3.656-1.652-3.648-3.64m3.655 1.455c.811 0 1.47-.65 1.47-1.455.007-.797-.666-1.47-1.477-1.47a1.462 1.462 0 1 0 .007 2.925m8.904-.564h-.54c-.067 0-.096-.014-.096-.088V3.501c0-.059.015-.08.08-.08h2.53c.066 0 .08.021.08.08v2.164a.2.2 0 0 1-.029.11c-.636 1.052-1.557 1.688-2.785 1.827-1.184.139-2.208-.234-3.034-1.082-.71-.724-1.038-1.616-1.016-2.624.014-.797.241-1.528.724-2.164.636-.834 1.476-1.309 2.529-1.397a3.93 3.93 0 0 1 2.28.49c.096.059.184.124.279.19.036.03.044.051.014.088-.395.563-.797 1.126-1.191 1.696-.044.066-.074.03-.117 0-.483-.344-1.207-.38-1.696-.066-.402.249-.593.636-.63 1.097-.065.906.535 1.579 1.456 1.615.468.022.855-.182 1.162-.57"/><path d="M0 7.456q.525-.79 1.03-1.557c.776-1.163 1.543-2.325 2.318-3.487.015-.022.051-.052.037-.08-.008-.015-.059-.015-.088-.015H.526c-.007-.044.015-.066.037-.088.329-.556.665-1.104.994-1.66.037-.058.073-.073.139-.073h5.22c.029 0 .073-.014.087.015.015.03-.021.058-.036.08Q5.488 3.06 4.02 5.526c-.015.03-.059.058-.037.088.015.021.066.014.095.014h1.96c.087 0 .116.015.116.11-.007.54 0 1.082 0 1.63 0 .073-.014.095-.095.095H.08C.058 7.456.037 7.456 0 7.456m14.11-3.48V.606c0-.095.029-.117.116-.117h3.897c.088 0 .11.03.11.11a59 59 0 0 0 0 1.6c0 .088-.015.118-.117.118-.556-.008-1.119 0-1.675-.008-.08 0-.102.022-.102.103q.01.297 0 .584c0 .08.03.095.102.095h1.66c.08 0 .102.022.102.103-.007.512 0 1.023 0 1.528 0 .08-.022.102-.102.102h-1.652c-.08 0-.11.015-.11.102q.01.308 0 .614c0 .08.03.103.102.103h1.748c.08 0 .11.022.11.11-.008.54 0 1.074 0 1.615 0 .073-.023.102-.096.102h-3.991c-.088 0-.095-.029-.095-.102-.008-1.133-.008-2.266-.008-3.392m4.819-.007V.599c0-.088.022-.11.11-.11a100 100 0 0 0 2.09 0c.095 0 .117.022.117.117q.002 2.445-.007 4.89c0 .11.022.14.139.14.563-.008 1.133 0 1.696-.008.073 0 .102.022.102.095v1.63c0 .08-.022.103-.102.103H19.03c-.088 0-.102-.022-.102-.11z"/></g><defs><clipPath id="a"><path fill="#fff" d="M0 .32h38v7.312H0z"/></clipPath></defs></svg>